<svg xmlns="http://www.w3.org/2000/svg" viewBox="0 0 500 500"><g id="freepik--background-complete--inject-92"><path d="M481,329.61c0,.15-27.31.26-61,.26s-61-.11-61-.26,27.3-.26,61-.26S481,329.47,481,329.61Z" style="fill:#ebebeb"></path><path d="M467.25,329.42c-.22-.67-14.79-26.48-14.79-26.48l-48.1-22.29-17.21,5.52-16.54,32s-.89,10.81,0,11.26S467.25,329.42,467.25,329.42Z" style="fill:#ebebeb"></path><polygon points="452.46 302.94 404.36 280.65 444.92 305.13 448.84 329.49 467.25 329.42 452.46 302.94" style="fill:#e0e0e0"></polygon><polygon points="383.69 292.88 394.93 295.11 421.29 291.23 423.47 289.3 426.72 290.74 423.1 291.96 394.67 298.57 381.65 296.8 383.69 292.88" style="fill:#e0e0e0"></polygon><polygon points="370.61 318.16 395.46 312.02 446 316.88 457.1 311.25 459.09 314.71 447.28 319.78 395.46 313.99 370.61 323.1 370.61 318.16" style="fill:#e0e0e0"></polygon><path d="M425,336.38c-.66-.23-3.36-9.13-11.37-16.68a132.86,132.86,0,0,0-18.91-14.16l-10.3,7.51-9,23.28Z" style="fill:#ebebeb"></path><path d="M394.72,305.54l8.22,14.25-2.27,2.81,5.5,1.32,5.79,12.2,13,.26s-3.67-6.89-7.49-12.46C413.55,318.15,394.72,305.54,394.72,305.54Z" style="fill:#e0e0e0"></path><polygon points="380.74 322.99 404.2 328.07 408.28 326.85 416.04 321.4 418.23 323.92 409.18 328.75 405.08 332.34 378.32 328.86 380.74 322.99" style="fill:#e0e0e0"></polygon><path d="M425,336.38a4.3,4.3,0,0,1-.47-.69l-1.26-2c-1.09-1.75-2.65-4.3-4.66-7.4-1-1.53-2.1-3.26-3.42-5a35.79,35.79,0,0,0-5.05-4.66c-3.81-3-8.23-6.08-12.93-9.19l-2.63-1.7h.3l-10.32,7.5.08-.11-6.55,16.74c-.81,2-1.45,3.61-1.92,4.77-.21.52-.39.93-.52,1.26a2.47,2.47,0,0,1-.21.42,2.2,2.2,0,0,1,.13-.45l.46-1.29c.43-1.17,1-2.79,1.79-4.82L384.2,313l0-.07.06,0,10.29-7.53.14-.11.15.1L397.5,307c4.7,3.11,9.12,6.18,12.94,9.25a35.38,35.38,0,0,1,5.09,4.76c1.34,1.75,2.39,3.48,3.39,5,2,3.13,3.49,5.71,4.53,7.5l1.17,2.07A6.9,6.9,0,0,1,425,336.38Z" style="fill:#e0e0e0"></path><path d="M136,395.76c.83-.29,4.2-11.4,14.21-20.83s23.63-17.71,23.63-17.71l12.87,9.39,11.22,29.1Z" style="fill:#ebebeb"></path><path d="M173.83,357.22,163.56,375l2.84,3.52-6.88,1.65-7.23,15.24-16.3.32s4.58-8.61,9.36-15.56C150.3,373,173.83,357.22,173.83,357.22Z" style="fill:#e0e0e0"></path><polygon points="190.65 379.17 161.99 385.38 156.89 383.86 147.19 377.05 144.45 380.2 155.76 386.23 160.89 390.72 193.3 386.03 190.65 379.17" style="fill:#e0e0e0"></polygon><path d="M236.7,395.76c0,.15-25.07.27-56,.27s-56-.12-56-.27,25.07-.26,56-.26S236.7,395.62,236.7,395.76Z" style="fill:#ebebeb"></path><path d="M16.44,96.62l20.89-12L50.68,63.77H69.51l35.95,22,7.53.39,19.51,8.12,3.43,57.2,13.35,5.41,5.14,42.52s20.88,15.85,21.22,17S185.23,259,185.23,259l-174,2.65Z" style="fill:#ebebeb"></path><path d="M14.15,169.71a240.21,240.21,0,0,0,32-6.32,326.43,326.43,0,0,0,33.24-11.3l26,3,8.21,1.05,21.5-18.57.46,7.57-21.35,14-8.82-.35-27-4.05L46,166.75l-32,8.89Z" style="fill:#e0e0e0;fill-rule:evenodd"></path><polygon points="153.33 188.01 87.34 207.43 79.14 200.4 13.08 209.72 12.59 220.39 77.18 207.43 83.08 211.5 155.17 199.44 153.33 188.01" style="fill:#e0e0e0;fill-rule:evenodd"></polygon><path d="M14.88,139.22s12.81-10.15,26.88-16.08l5.9,2.27c13.05-5.5,26.13-11,31-13.09s16,.83,27.16-.32l7.88-5.21c11.34-1,19.48-1.39,19.48-1.39l.28,4.64s-8.35.33-19.41,1c0,0-5.47,4.8-8.23,5l-25.49-1.38c-3.11,1.3-18.07,9-32.94,16.68L42.3,129c-14.45,7.51-27.77,19.44-27.77,19.44Z" style="fill:#e0e0e0;fill-rule:evenodd"></path><path d="M11.57,261.55a.67.67,0,0,1,0-.23c0-.18.08-.4.13-.69l.54-2.61,2.05-9.61,6.89-31.67c.65-3,1.29-5.87,1.9-8.67v0l0,0,15.64-19.81,4.63-5.8,1.26-1.55.33-.39c.07-.09.11-.13.12-.13l-.1.15-.31.42-1.21,1.59c-1.08,1.4-2.62,3.4-4.55,5.88l-15.55,19.9,0-.08c-.61,2.8-1.25,5.71-1.9,8.68-2.72,12.34-5.19,23.52-7,31.64-.9,4-1.64,7.29-2.15,9.57-.26,1.11-.46,2-.61,2.6-.07.28-.12.5-.16.68A1.22,1.22,0,0,1,11.57,261.55Z" style="fill:#e0e0e0"></path><path d="M27.7,261.67l.23-.1.66-.28,2.6-1.05,9.73-3.88,33.56-13.22-.1.12,6.67-19.9c1.85-5.51,3.65-10.87,5.38-16v0l0,0,11.18-14.38,0,0c4.75-11,8.73-20.21,11.52-26.69l3.27-7.5c.38-.86.67-1.51.87-2l.23-.5a.61.61,0,0,1,.09-.17,1.44,1.44,0,0,1-.07.18c0,.13-.12.3-.2.52-.2.47-.47,1.13-.83,2-.75,1.75-1.82,4.31-3.19,7.54-2.77,6.5-6.71,15.73-11.4,26.75v0l0,0L86.72,207.56l0-.06c-1.72,5.13-3.52,10.49-5.36,16L74.7,243.39l0,.09-.08,0L41,256.6l-9.76,3.76-2.62,1-.67.25Z" style="fill:#e0e0e0"></path><path d="M86.28,175c-.1,0-4-24.23-8.65-54.16s-8.4-54.22-8.3-54.24,4,24.23,8.65,54.17S86.37,175,86.28,175Z" style="fill:#e0e0e0"></path><path d="M316.05,261.88c.84-1.79,9.72-57.66,9.72-57.66l10.77-7.3,6.58-36,8.36-6.11,7.61-27.69L370.42,125l16.37,6,8.71,13.77.89,18.09L402.48,123l3.83-3.73L410.7,89l14.87-5.81,29.59,17.35,26.53,93.62,2.87,67.73Z" style="fill:#ebebeb"></path><polygon points="325.08 261.88 335.74 210.63 325.76 203.38 301.04 261.88 325.08 261.88" style="fill:#e0e0e0"></polygon><polygon points="336.54 197.15 344.35 200.83 345.78 214.44 349.8 163.91 343.12 161.14 336.54 197.15" style="fill:#e0e0e0"></polygon><polygon points="351.48 154.94 356.97 157.66 363 129.48 359.09 127.24 351.48 154.94" style="fill:#e0e0e0"></polygon><polygon points="402.48 123.01 396.5 161.4 398.29 186.72 400.3 221.94 408.62 128.15 402.48 123.01" style="fill:#e0e0e0"></polygon><polygon points="406.31 119.28 413.78 123.86 415.21 90.28 410.7 88.99 406.31 119.28" style="fill:#e0e0e0"></polygon><polygon points="414.13 116.77 423.7 129.75 413.78 123.86 414.13 116.77" style="fill:#e0e0e0"></polygon><path d="M320.62,215.56c.44,0,1.6,10,10.42,8.16,15-3.07,66.42-17.77,66.42-17.77L405,208.4l7.41.95,61.79-35.15,1.66,6.14L413,212.09l-8-.32-8.42-3.41-66.45,19.3-13.64-2.32Z" style="fill:#e0e0e0;fill-rule:evenodd"></path><path d="M348.41,180.37a105.61,105.61,0,0,1,22.94-13.73l25-6.22c-.74.18,10-6.27,10-6.27s12.86,3.46,22.93,2.42l7.13-4.71c10.25-.89,34.21,2.28,34.21,2.28l1.33,4.69s-25.23-3.73-35.22-3.13c0,0-4.95,4.34-7.45,4.52l-23-1.24s-9.7,7.93-9.55,7.18L371.85,172c-13.07,6.79-24.24,18.41-24.24,18.41l-8.52-8.23,1-5.71Z" style="fill:#e0e0e0;fill-rule:evenodd"></path><path d="M303.18,256.82l20,1.09,69.6-13.84,6,4.14,83.64-14.93L482.12,221l-78.91,23-8.4-7.16S326,250.48,325,250.11l-16.79-3.25Z" style="fill:#e0e0e0;fill-rule:evenodd"></path><path d="M407.85,106.57c0-.11,5.51-2.25,5.51-2.25l45.07,10.81-1-3.51-42.72-10.88L408.38,103Z" style="fill:#e0e0e0;fill-rule:evenodd"></path><polygon points="50.68 63.77 43.29 181.16 35.49 85.5 50.68 63.77" style="fill:#e0e0e0"></polygon><polygon points="112.72 86.27 113.34 156.19 105.11 174.78 105.19 85.88 112.72 86.27" style="fill:#e0e0e0"></polygon><path d="M487.13,261.88c0,.15-106.48.26-237.8.26S11.5,262,11.5,261.88s106.46-.26,237.83-.26S487.13,261.74,487.13,261.88Z" style="fill:#ebebeb"></path><path d="M295.49,51.57c.56-4-5.1-7.3-9.34-7.64-2-.16-4.13.15-6-.52-4.16-1.45-5.82-6.82-9.87-8.53-3-1.28-6.53-.14-9.47,1.34s-5.84,3.34-9.13,3.55c-2.85.18-6-.88-8.46.52-1.86,1-2.83,3.18-4.55,4.45s-3.87,1.5-6,1.61a16.85,16.85,0,0,0-6.14,1c-1.9.87-3.47,2.87-3.08,4.92Z" style="fill:#f5f5f5"></path><path d="M366.94,113.56c.55-4-5.1-7.29-9.34-7.64-2-.16-4.13.15-6.05-.52-4.16-1.45-5.82-6.82-9.88-8.53-3-1.28-6.52-.14-9.46,1.34s-5.84,3.34-9.13,3.55c-2.85.18-6-.88-8.46.52-1.86,1-2.83,3.19-4.55,4.45s-3.87,1.5-6,1.62a16.62,16.62,0,0,0-6.13,1c-1.9.87-3.47,2.88-3.08,4.93Z" style="fill:#f5f5f5"></path><path d="M238.61,85.09C239,82.27,235,80,232,79.72c-1.42-.12-2.9.1-4.25-.37-2.92-1-4.09-4.79-6.94-6-2.13-.9-4.59-.1-6.65.94s-4.11,2.35-6.42,2.5c-2,.13-4.19-.62-5.95.37-1.31.73-2,2.23-3.2,3.12a7.56,7.56,0,0,1-4.18,1.14,11.84,11.84,0,0,0-4.32.7A3.44,3.44,0,0,0,188,85.59Z" style="fill:#f5f5f5"></path><path d="M134.55,47.15c.39-2.82-3.58-5.13-6.57-5.37-1.42-.12-2.9.1-4.25-.37-2.92-1-4.09-4.79-6.94-6-2.13-.9-4.58-.1-6.65.94s-4.11,2.35-6.42,2.49c-2,.13-4.18-.61-5.94.37-1.31.73-2,2.24-3.2,3.13a7.64,7.64,0,0,1-4.19,1.13,11.79,11.79,0,0,0-4.31.71,3.4,3.4,0,0,0-2.16,3.46Z" style="fill:#f5f5f5"></path><path d="M392.29,473.62c.82-.29,4.19-11.4,14.2-20.84s23.63-17.7,23.63-17.7L443,444.47l11.22,29.09Z" style="fill:#ebebeb"></path><path d="M430.12,435.08l-10.27,17.81,2.84,3.52-6.88,1.64-7.23,15.24-16.29.33s4.58-8.61,9.35-15.56C406.59,450.84,430.12,435.08,430.12,435.08Z" style="fill:#e0e0e0"></path><polygon points="446.94 457.03 418.28 463.24 413.18 461.71 404.38 455.54 401.67 458.98 412.06 464.09 417.18 468.58 449.59 463.88 446.94 457.03" style="fill:#e0e0e0"></polygon><path d="M89.5,309.7c-.06.07-.58-.23-1.15-.69s-1-.9-.92-1,.57.23,1.14.69S89.56,309.62,89.5,309.7Z" style="fill:#e0e0e0"></path><path d="M105.12,286.35a18,18,0,0,0-.53-6.5,6.42,6.42,0,0,0-4.42-4.42c-2.45-.5-5,1-6.31,3.12a18.11,18.11,0,0,0-2.25,7.07,259.49,259.49,0,0,0-2.9,52.32l10.07.13C103.17,320.15,104.33,304.78,105.12,286.35Z" style="fill:#ebebeb"></path><path d="M98.78,275.36a1,1,0,0,1,0,.15c0,.13-.09.28-.16.46l-.67,1.72c-.14.38-.32.79-.47,1.25L97,280.45c-.18.55-.37,1.13-.56,1.74s-.34,1.29-.52,2a87.58,87.58,0,0,0-1.93,9.88c-.54,3.76-.89,7.92-1.17,12.29-.51,8.75-.59,16.7-.82,22.44-.11,2.87-.2,5.2-.31,6.8-.06.78-.1,1.39-.13,1.85l0,.48c0,.1,0,.16,0,.16a1.15,1.15,0,0,1,0-.17c0-.13,0-.28,0-.48,0-.45,0-1.07.06-1.85.07-1.6.12-3.93.2-6.8.16-5.74.2-13.68.71-22.45.28-4.38.65-8.55,1.21-12.31a82.14,82.14,0,0,1,2-9.9l.54-2c.21-.62.4-1.2.59-1.74l.51-1.51c.16-.46.35-.86.5-1.24l.73-1.7.2-.44C98.75,275.4,98.77,275.35,98.78,275.36Z" style="fill:#e0e0e0"></path><path d="M99.7,275.36a7,7,0,0,1,1.22,2.07,15.25,15.25,0,0,1,.92,6.46c-.27,5.52-.76,13.12-1.42,21.52s-1.39,16-2,21.47c-.3,2.75-.55,5-.74,6.5-.1.74-.17,1.33-.23,1.76,0,.18,0,.33-.06.46s0,.15,0,.15,0-.05,0-.16,0-.27,0-.46c0-.43.09-1,.16-1.77.15-1.57.36-3.78.63-6.5.52-5.49,1.21-13.09,1.87-21.48s1.19-16,1.52-21.5a15.5,15.5,0,0,0-.78-6.4A13.12,13.12,0,0,0,99.7,275.36Z" style="fill:#e0e0e0"></path><path d="M106.63,301.21a5.64,5.64,0,0,1-1.89-.49,5.22,5.22,0,0,1-1.78-.83,10.54,10.54,0,0,1,3.67,1.32Z" style="fill:#e0e0e0"></path><path d="M107.83,291a5.9,5.9,0,0,1-1.8,1,5.83,5.83,0,0,1-2,.68,6,6,0,0,1,1.81-1A5.89,5.89,0,0,1,107.83,291Z" style="fill:#e0e0e0"></path><path d="M107.21,282.72a3.14,3.14,0,0,1-1.49.08c-.82-.06-1.47-.18-1.46-.28a3.21,3.21,0,0,1,1.48-.08A3.47,3.47,0,0,1,107.21,282.72Z" style="fill:#e0e0e0"></path><path d="M96.9,277.4c-.08.05-.52-.49-1-1.22a3.55,3.55,0,0,1-.68-1.4c.08-.06.52.49,1,1.21S97,277.35,96.9,277.4Z" style="fill:#e0e0e0"></path><path d="M93.5,282.42a2.91,2.91,0,0,1-1.42.15c-.78,0-1.42-.11-1.41-.21s.63-.16,1.42-.15A3.14,3.14,0,0,1,93.5,282.42Z" style="fill:#e0e0e0"></path><path d="M91.05,292.47c0,.1-.7-.09-1.49-.4s-1.4-.65-1.36-.75a3.62,3.62,0,0,1,1.49.41C90.48,292.05,91.09,292.38,91.05,292.47Z" style="fill:#e0e0e0"></path><path d="M90.79,300.93c0,.09-.55.3-1.27.45a2.79,2.79,0,0,1-1.35.1c0-.1.55-.3,1.28-.45S90.77,300.83,90.79,300.93Z" style="fill:#e0e0e0"></path><path d="M89.64,314.75c0,.1-.59.29-1.35.43s-1.39.17-1.41.07.58-.29,1.35-.42A3,3,0,0,1,89.64,314.75Z" style="fill:#e0e0e0"></path><path d="M88.87,322.39c0,.08-.45.44-1.12.79s-1.25.57-1.29.48.46-.44,1.12-.79S88.83,322.3,88.87,322.39Z" style="fill:#e0e0e0"></path><path d="M95.11,331.05c-.09.05-.53-.56-1-1.35a3.87,3.87,0,0,1-.67-1.53c.08-.05.52.55,1,1.35A4.26,4.26,0,0,1,95.11,331.05Z" style="fill:#e0e0e0"></path><path d="M96.91,316.65a4.24,4.24,0,0,1-1.1,1.32c-.67.66-1.27,1.14-1.34,1.07s.42-.66,1.09-1.32S96.84,316.58,96.91,316.65Z" style="fill:#e0e0e0"></path><path d="M96.51,309.1c-.07.07-.53-.31-1-.83s-.82-1-.75-1.07.53.3,1,.83S96.58,309,96.51,309.1Z" style="fill:#e0e0e0"></path><path d="M97.74,299.45c.08.06-.33.64-.91,1.28s-1.1,1.11-1.17,1,.33-.64.91-1.29S97.67,299.38,97.74,299.45Z" style="fill:#e0e0e0"></path><path d="M98.44,292.44c-.07.07-.64-.37-1.27-1s-1.09-1.19-1-1.26.64.38,1.27,1S98.51,292.37,98.44,292.44Z" style="fill:#e0e0e0"></path><path d="M99.81,283a3.53,3.53,0,0,1-.64,1.41c-.44.74-.86,1.29-.94,1.24s.2-.69.63-1.42S99.72,282.93,99.81,283Z" style="fill:#e0e0e0"></path><path d="M102.38,274.2c.09.05-.17.68-.56,1.42s-.8,1.3-.88,1.25.16-.68.56-1.42S102.29,274.15,102.38,274.2Z" style="fill:#e0e0e0"></path><path d="M105.3,278.19c0,.09-.36.37-.89.62s-1,.39-1,.3.36-.36.89-.62S105.26,278.1,105.3,278.19Z" style="fill:#e0e0e0"></path><path d="M105.37,309.7a4.09,4.09,0,0,1-2-.47,4,4,0,0,1-1.69-1.09,9.66,9.66,0,0,1,1.83.76A9.44,9.44,0,0,1,105.37,309.7Z" style="fill:#e0e0e0"></path><path d="M104.18,316.37c0,.1-.59.3-1.35.44s-1.39.19-1.41.09a3,3,0,0,1,1.34-.44A3.16,3.16,0,0,1,104.18,316.37Z" style="fill:#e0e0e0"></path><path d="M102.71,327.82a5.75,5.75,0,0,1-2.48-3.12c.1-.05.56.71,1.24,1.56A11.13,11.13,0,0,1,102.71,327.82Z" style="fill:#e0e0e0"></path><path d="M86.66,333.05c-.07-.07.34-.53.9-1s1.08-.81,1.14-.74-.34.53-.91,1S86.72,333.13,86.66,333.05Z" style="fill:#e0e0e0"></path><path d="M82,308.07c-.65-2-1.87-4.39-4-4.42a3.55,3.55,0,0,0-3,2,7.54,7.54,0,0,0-.81,3.68,112.47,112.47,0,0,0,5.16,28.74l7.26-.13A106,106,0,0,0,82,308.07Z" style="fill:#ebebeb"></path><path d="M67.94,295.3a8.68,8.68,0,0,0-8.12-6.94c-3.45.61-4.78,4-5.19,7.48s.67,6.93,1.73,10.26q5.13,16.06,10.27,32.11c3.23-.35,6.49.08,9.72-.27C73.28,323.6,71.49,309.52,67.94,295.3Z" style="fill:#ebebeb"></path><path d="M78,303.65a5.55,5.55,0,0,0-1,4.55c.15,1.48.32,3.27.57,5.22s.61,4.11,1,6.35c.88,4.48,1.87,8.5,2.5,11.43.32,1.46.56,2.65.72,3.47.06.38.11.7.16.95a1.45,1.45,0,0,1,0,.34,1.19,1.19,0,0,1-.1-.32c-.06-.26-.14-.56-.23-.94-.21-.87-.48-2-.82-3.45-.7-2.91-1.73-6.92-2.61-11.42-.44-2.24-.79-4.4-1-6.37-.13-1-.21-1.92-.29-2.8s-.17-1.69-.21-2.45a7.16,7.16,0,0,1,.49-3.52A3.12,3.12,0,0,1,78,303.65Z" style="fill:#e0e0e0"></path><path d="M60,288.09a12,12,0,0,0-1.17,1.57,11,11,0,0,0-1.48,5.08,23.58,23.58,0,0,0,1.2,7.81c.85,2.89,1.79,6.05,2.77,9.38l5,17.07c.62,2.16,1.11,3.92,1.47,5.18.16.59.29,1.06.38,1.42a3.2,3.2,0,0,1,.11.5,4.46,4.46,0,0,1-.18-.48l-.44-1.4c-.39-1.25-.92-3-1.58-5.15-1.3-4.39-3.09-10.4-5.06-17-1-3.33-1.9-6.5-2.75-9.39a23.34,23.34,0,0,1-1.13-7.92,10.82,10.82,0,0,1,1.61-5.13A5.82,5.82,0,0,1,60,288.09Z" style="fill:#e0e0e0"></path><path d="M74.21,336.11a3.1,3.1,0,0,1-.22-.46c-.12-.31-.33-.77-.55-1.37-.46-1.19-1.06-2.94-1.67-5.15s-1.22-4.86-1.81-7.82-1.18-6.23-1.82-9.65-1.43-6.65-2.3-9.53A53.58,53.58,0,0,0,63,294.65a40.39,40.39,0,0,0-2.61-4.71c-.34-.54-.64-.94-.82-1.22a2.33,2.33,0,0,1-.27-.44,3.91,3.91,0,0,1,.33.4c.2.27.52.65.87,1.18a35.51,35.51,0,0,1,2.73,4.68A50.44,50.44,0,0,1,66.15,302a95,95,0,0,1,2.34,9.56c.64,3.42,1.24,6.68,1.8,9.65s1.14,5.62,1.73,7.83,1.13,4,1.55,5.17c.2.6.38,1.06.49,1.38A3.12,3.12,0,0,1,74.21,336.11Z" style="fill:#e0e0e0"></path><path d="M62.51,309.52a3.28,3.28,0,0,1,.44-1.46c.33-.76.67-1.35.76-1.31a3.25,3.25,0,0,1-.44,1.45C62.94,309,62.6,309.56,62.51,309.52Z" style="fill:#e0e0e0"></path><path d="M58.74,311.93a3.46,3.46,0,0,1-1.4-.31c-.74-.23-1.34-.44-1.32-.54s.67,0,1.43.2S58.78,311.84,58.74,311.93Z" style="fill:#e0e0e0"></path><path d="M60.91,319.11c.06.08-.36.48-.93.88s-1.08.67-1.13.59.36-.47.93-.88S60.85,319,60.91,319.11Z" style="fill:#e0e0e0"></path><path d="M62.65,326.27c0,.1-.49.3-1.15.46s-1.2.21-1.23.12.49-.3,1.15-.46S62.63,326.17,62.65,326.27Z" style="fill:#e0e0e0"></path><path d="M72.1,308.69c.05.08-.39.43-1,.67s-1.2.27-1.21.17.48-.27,1.09-.5S72.05,308.6,72.1,308.69Z" style="fill:#e0e0e0"></path><path d="M73.45,319.82c0,.09-.56-.07-1.16-.35s-1.06-.59-1-.68.56.07,1.17.36S73.5,319.73,73.45,319.82Z" style="fill:#e0e0e0"></path><path d="M67.67,320.4c-.06.08-.47-.11-.91-.43s-.76-.65-.7-.73.46.12.9.44S67.72,320.32,67.67,320.4Z" style="fill:#e0e0e0"></path><path d="M84.57,311.43c0,.1-.61.23-1.38.14s-1.35-.34-1.32-.43.63,0,1.36.08S84.56,311.33,84.57,311.43Z" style="fill:#e0e0e0"></path><path d="M75.05,312.79c0,.09-.55.3-1.29.35s-1.34-.08-1.33-.18.59-.13,1.3-.18S75,312.69,75.05,312.79Z" style="fill:#e0e0e0"></path><path d="M85.39,317.93c-.06.08-.65-.2-1.33-.63s-1.19-.84-1.14-.93.65.2,1.33.63S85.44,317.84,85.39,317.93Z" style="fill:#e0e0e0"></path><path d="M80.34,313c-.08.06-.43-.35-.77-.9S79,311,79.1,311s.43.35.77.9S80.43,312.93,80.34,313Z" style="fill:#e0e0e0"></path><path d="M80.36,320.22a2.89,2.89,0,0,1,.27-1.36c.24-.73.51-1.29.6-1.26A2.83,2.83,0,0,1,81,319C80.73,319.69,80.45,320.26,80.36,320.22Z" style="fill:#e0e0e0"></path><path d="M82.84,327.82c-.09.05-.47-.56-.85-1.35a3.6,3.6,0,0,1-.52-1.51c.09,0,.46.56.84,1.35A3.76,3.76,0,0,1,82.84,327.82Z" style="fill:#e0e0e0"></path><path d="M76.35,322.84c0,.09-.5.09-1.09,0s-1.05-.27-1-.37.51-.09,1.09,0S76.37,322.74,76.35,322.84Z" style="fill:#e0e0e0"></path><path d="M120.45,338.07c0,.14-15.22.26-34,.26s-34-.12-34-.26,15.22-.26,34-.26S120.45,337.92,120.45,338.07Z" style="fill:#ebebeb"></path></g><g id="freepik--Floor--inject-92"><path d="M458.82,473.24c0,.15-95.74.27-213.81.27s-213.83-.12-213.83-.27S126.9,473,245,473,458.82,473.1,458.82,473.24Z" style="fill:#263238"></path></g><g id="freepik--Sun--inject-92"><path d="M380.27,46.12a11.8,11.8,0,1,1-11.8-11.8A11.8,11.8,0,0,1,380.27,46.12Z" style="fill:#C6FF00"></path><path d="M366.78,72.51c-.06,0-.12-2.18-.12-4.87s.06-4.87.12-4.87a46.3,46.3,0,0,1,.13,4.87A46.3,46.3,0,0,1,366.78,72.51Z" style="fill:#C6FF00"></path><path d="M360,60c.06,0-1.05,2.07-2.47,4.54S354.87,69,354.81,69s1.05-2.07,2.48-4.54S359.93,60,360,60Z" style="fill:#C6FF00"></path><path d="M353,55.68A26.28,26.28,0,0,1,350.25,58a26.37,26.37,0,0,1-2.91,2.16,26.42,26.42,0,0,1,2.76-2.35A26.84,26.84,0,0,1,353,55.68Z" style="fill:#C6FF00"></path><path d="M378.56,67.71a6.28,6.28,0,0,1-.31-1.19c-.17-.75-.41-1.77-.72-2.89s-.6-2.13-.83-2.86a8.26,8.26,0,0,1-.33-1.19,5.61,5.61,0,0,1,.5,1.13c.27.72.6,1.73.9,2.85s.52,2.17.65,2.92A6.34,6.34,0,0,1,378.56,67.71Z" style="fill:#C6FF00"></path><path d="M390.53,59.22A40.87,40.87,0,0,1,387,56.34c-1.88-1.65-3.37-3-3.33-3.07a38.68,38.68,0,0,1,3.49,2.88A42.9,42.9,0,0,1,390.53,59.22Z" style="fill:#C6FF00"></path><path d="M395.11,47.55a8.74,8.74,0,0,1-1.42-.21c-.88-.14-2.09-.33-3.43-.48s-2.56-.25-3.44-.3a9.15,9.15,0,0,1-1.44-.13,7.7,7.7,0,0,1,1.44,0c.89,0,2.12.08,3.47.23s2.56.37,3.43.56A7,7,0,0,1,395.11,47.55Z" style="fill:#C6FF00"></path><path d="M395.12,36.07c0,.07-2.53.75-5.7,1.52s-5.75,1.34-5.77,1.28,2.54-.75,5.71-1.52S395.11,36,395.12,36.07Z" style="fill:#C6FF00"></path><path d="M381.79,22.7a49.49,49.49,0,0,1-2.73,4.35,49.81,49.81,0,0,1-2.94,4.22c-.05,0,1.17-2,2.73-4.35S381.73,22.66,381.79,22.7Z" style="fill:#C6FF00"></path><path d="M368.56,19.91a12.25,12.25,0,0,1,0,1.62c0,1,0,2.38,0,3.9s0,2.9,0,3.9a10.41,10.41,0,0,1,0,1.62,10,10,0,0,1-.16-1.61c-.06-1-.11-2.38-.12-3.91s0-2.91.11-3.91A8.56,8.56,0,0,1,368.56,19.91Z" style="fill:#C6FF00"></path><path d="M358.54,32.39a50.87,50.87,0,0,1-2.78-4.31c-1.47-2.41-2.62-4.4-2.56-4.43s1.3,1.89,2.77,4.3S358.6,32.35,358.54,32.39Z" style="fill:#C6FF00"></path><path d="M352.55,37.48a6.14,6.14,0,0,1-1.25-.2c-.77-.16-1.82-.42-3-.76s-2.17-.69-2.91-1a6.13,6.13,0,0,1-1.16-.51,7.3,7.3,0,0,1,1.22.35c.75.24,1.77.56,2.92.9s2.18.62,2.94.83A6.11,6.11,0,0,1,352.55,37.48Z" style="fill:#C6FF00"></path><path d="M349.93,46.54a27.88,27.88,0,0,1-3.76.49,28.92,28.92,0,0,1-3.79.24,28.2,28.2,0,0,1,3.77-.49A28.81,28.81,0,0,1,349.93,46.54Z" style="fill:#C6FF00"></path></g><g id="freepik--Plant--inject-92"><path d="M71.53,396.19a3,3,0,0,1,2.5-.81,13.45,13.45,0,0,1,8.45,3.35,39.23,39.23,0,0,1-2-7.13c-.18-1-.22-2.21.63-2.74s2.17.22,2.92,1.06a18.65,18.65,0,0,1,4.27,8.17c.44-2.6.87-5.2,1.31-7.79.14-.85.39-1.84,1.2-2.13,1-.37,2,.67,2.45,1.65a11.42,11.42,0,0,1,.37,8.83L99,393.26c.54-.54,1.22-1.12,2-1,1.22.26,1.21,2,.71,3.17a12,12,0,0,1-6.23,6.21l-10.23,1.69c-4,.27-10.26-.51-12.93-3.52C71.42,398.83,70.69,397.25,71.53,396.19Z" style="fill:#C6FF00"></path><path d="M71.42,408.1c9.74-7.66,26.86-8.75,38.13-3.59,12.72,5.82,21,19.37,22.29,32.35C133,449.19,127.08,461.71,122,473l-49.17.23c-5.9-9.75-12-20.66-12.45-32S62.47,415.15,71.42,408.1Z" style="fill:#455a64"></path><path d="M93.48,401.33l.22.07.64.15,1,.23a10.26,10.26,0,0,1,1.41.37,28.07,28.07,0,0,1,8.33,4,37.53,37.53,0,0,1,9.48,9.85,56.2,56.2,0,0,1,4,7.08,63.27,63.27,0,0,1,3.06,8.17,37.65,37.65,0,0,1,.83,16.67,72.51,72.51,0,0,1-3.71,13.26c-1.37,3.69-2.58,6.64-3.38,8.69-.39,1-.7,1.78-.92,2.36l-.23.62c0,.14-.07.21-.06.22a1.35,1.35,0,0,0,.11-.2c.07-.16.16-.36.26-.61.25-.56.58-1.34,1-2.33.86-2,2.12-4.95,3.53-8.63A70.74,70.74,0,0,0,122.9,448a37.48,37.48,0,0,0-.81-16.86,61.85,61.85,0,0,0-3.09-8.24,56.36,56.36,0,0,0-4-7.13,37.34,37.34,0,0,0-9.66-9.88,27.29,27.29,0,0,0-8.47-3.9,9.45,9.45,0,0,0-1.42-.33l-1.06-.18-.65-.11Z" style="fill:#263238"></path><path d="M79.16,472.86a6.72,6.72,0,0,0-.23-.74c-.18-.51-.43-1.2-.73-2.07-.65-1.8-1.6-4.4-2.7-7.64s-2.34-7.11-3.41-11.49a75.09,75.09,0,0,1-2.19-14.48,50.53,50.53,0,0,1,1.5-14.51A39.86,39.86,0,0,1,76,411a32.07,32.07,0,0,1,5-6.27c.65-.7,1.26-1.13,1.62-1.48a5.27,5.27,0,0,0,.56-.53,5,5,0,0,0-.62.45c-.38.33-1,.75-1.69,1.42a31,31,0,0,0-5.18,6.24,39.17,39.17,0,0,0-4.75,11,50,50,0,0,0-1.55,14.64A74,74,0,0,0,71.67,451c1.11,4.4,2.39,8.27,3.52,11.5s2.14,5.81,2.84,7.59l.81,2.05A4.18,4.18,0,0,0,79.16,472.86Z" style="fill:#263238"></path><path d="M88.66,401.62a3.78,3.78,0,0,0,.19.72l.64,2c.29.87.63,1.95,1,3.2s.82,2.67,1.25,4.26c.92,3.16,1.89,7,2.87,11.19s1.85,8.94,2.6,13.9,1.21,9.72,1.51,14.06c.11,2.17.26,4.23.27,6.16,0,1,.05,1.9.07,2.8s0,1.76,0,2.58c0,1.65-.06,3.13-.11,4.44s-.09,2.43-.16,3.34-.1,1.59-.13,2.12a4.17,4.17,0,0,0,0,.74,5.4,5.4,0,0,0,.1-.73c0-.53.13-1.23.21-2.11s.19-2,.25-3.35.17-2.8.18-4.44c0-.83,0-1.69,0-2.59s0-1.84,0-2.8c0-1.94-.14-4-.23-6.19-.28-4.34-.75-9.12-1.48-14.09S96,427.17,95,422.92s-2-8-3-11.19c-.45-1.58-.92-3-1.33-4.25s-.76-2.31-1.07-3.18l-.72-2A5.69,5.69,0,0,0,88.66,401.62Z" style="fill:#263238"></path><path d="M130.28,440.78a15.25,15.25,0,0,0,3.36,1.79,15.14,15.14,0,0,0,3.55,1.36,15.79,15.79,0,0,0-3.36-1.78A16.45,16.45,0,0,0,130.28,440.78Z" style="fill:#263238"></path><path d="M128.72,426.65a18.8,18.8,0,0,0,3.69-1.86,18.74,18.74,0,0,0,3.45-2.27,18.8,18.8,0,0,0-3.69,1.86A18.74,18.74,0,0,0,128.72,426.65Z" style="fill:#263238"></path><path d="M119.74,415a11.58,11.58,0,0,0,1.63-2.89,12.53,12.53,0,0,0,1.21-3.08A11.58,11.58,0,0,0,121,411.9,12.53,12.53,0,0,0,119.74,415Z" style="fill:#263238"></path><path d="M107.41,404a7.54,7.54,0,0,0,1.79-2,7.9,7.9,0,0,0,1.41-2.29,7.81,7.81,0,0,0-1.78,2A8.37,8.37,0,0,0,107.41,404Z" style="fill:#263238"></path><path d="M124.7,458a18.07,18.07,0,0,0,3.44,2.12,17.07,17.07,0,0,0,3.67,1.72,18,18,0,0,0-3.45-2.12A18.13,18.13,0,0,0,124.7,458Z" style="fill:#263238"></path><path d="M110,449.45a13.31,13.31,0,0,0,3.14-1.5,13.33,13.33,0,0,0,2.92-1.9,13.31,13.31,0,0,0-3.14,1.5A12.54,12.54,0,0,0,110,449.45Z" style="fill:#263238"></path><path d="M105.93,429.81a9.27,9.27,0,0,0,3,1.62,9.44,9.44,0,0,0,3.32.86,20,20,0,0,0-3.15-1.3A20.38,20.38,0,0,0,105.93,429.81Z" style="fill:#263238"></path><path d="M101.26,415a5.74,5.74,0,0,0,1.27-2.4,5.86,5.86,0,0,0,.49-2.68,13.28,13.28,0,0,0-.92,2.53A13.1,13.1,0,0,0,101.26,415Z" style="fill:#263238"></path><path d="M111.68,468.72a13.23,13.23,0,0,0-1.32-3.31,14.06,14.06,0,0,0-1.73-3.1,13.44,13.44,0,0,0,1.31,3.3A14.56,14.56,0,0,0,111.68,468.72Z" style="fill:#263238"></path><path d="M86.9,463.44a10.13,10.13,0,0,0,2.87-2.57,10,10,0,0,0,2.09-3.23c-.11-.07-1.08,1.34-2.45,2.93S86.81,463.34,86.9,463.44Z" style="fill:#263238"></path><path d="M78.31,441.83a17.89,17.89,0,0,0,3.43,2.23,18.35,18.35,0,0,0,3.65,1.83A18,18,0,0,0,82,443.66,18.56,18.56,0,0,0,78.31,441.83Z" style="fill:#263238"></path><path d="M84.09,428.53a17.31,17.31,0,0,0-2.66-2.83,17,17,0,0,0-3-2.49A16.05,16.05,0,0,0,81.11,426,16.48,16.48,0,0,0,84.09,428.53Z" style="fill:#263238"></path><path d="M83.83,414.42a12.26,12.26,0,0,0,2.71-1.91A12.26,12.26,0,0,0,89,410.25a11.93,11.93,0,0,0-2.72,1.9A11.88,11.88,0,0,0,83.83,414.42Z" style="fill:#263238"></path><path d="M67.44,405.08a12,12,0,0,0,2.69,2,12.73,12.73,0,0,0,3,1.65,12.24,12.24,0,0,0-2.7-2A12.57,12.57,0,0,0,67.44,405.08Z" style="fill:#263238"></path><path d="M61.12,418a9.21,9.21,0,0,0,2.81.43,8.85,8.85,0,0,0,2.85,0A8.79,8.79,0,0,0,64,418,8.88,8.88,0,0,0,61.12,418Z" style="fill:#263238"></path><path d="M57,433.31a14.7,14.7,0,0,0,3.59-.12,14,14,0,0,0,3.53-.57,13.74,13.74,0,0,0-3.58.11A13.85,13.85,0,0,0,57,433.31Z" style="fill:#263238"></path><path d="M59.05,453a21.6,21.6,0,0,0,3.29-3,22,22,0,0,0,3-3.32,20.86,20.86,0,0,0-3.3,3A20.49,20.49,0,0,0,59.05,453Z" style="fill:#263238"></path><path d="M64.42,468.21A14.78,14.78,0,0,0,67.75,465a14.93,14.93,0,0,0,2.57-3.84c-.11-.08-1.3,1.61-2.93,3.55S64.33,468.11,64.42,468.21Z" style="fill:#263238"></path><g style="opacity:0.30000000000000004"><path d="M83.23,402.67c-.08-.12-1,.35-2.68,1.45a28,28,0,0,0-5.93,5.81A33.29,33.29,0,0,0,69.19,421a52.75,52.75,0,0,0-1.83,15,64,64,0,0,0,2,14.9,81.4,81.4,0,0,0,3.93,11.58c2.74,6.38,5,10,5.3,9.88s-1.46-4-3.77-10.48-5-15.56-5.14-25.91a55.14,55.14,0,0,1,1.57-14.38A34.67,34.67,0,0,1,76,410.88a35.52,35.52,0,0,1,5.17-6.07C82.53,403.54,83.33,402.81,83.23,402.67Z"></path></g><g style="opacity:0.30000000000000004"><path d="M89,400.89c-.31.07.32,4.13,1.54,10.63s3,15.46,4.51,25.4c.75,5,1.33,9.72,1.77,14.05.19,2.16.4,4.22.51,6.15s.24,3.73.32,5.37c.29,6.58.22,10.68.58,10.7s.93-4.06,1.05-10.72c0-1.66,0-3.49,0-5.44s-.17-4-.3-6.25c-.33-4.38-.86-9.2-1.61-14.21-1.55-10-3.59-19-5.21-25.4S89.32,400.82,89,400.89Z"></path></g><g style="opacity:0.30000000000000004"><path d="M94.78,400.38c0,.17,1.09.61,3.06,1.5a46.07,46.07,0,0,1,7.92,4.55,40.34,40.34,0,0,1,16.07,24.33,42.21,42.21,0,0,1,.92,8.42,53,53,0,0,1-.6,7.92,83.25,83.25,0,0,1-3.23,13.19c-1.2,3.7-2.32,6.67-3,8.73s-1.08,3.24-.93,3.31.77-1,1.76-2.95,2.34-4.86,3.76-8.54a72,72,0,0,0,3.8-13.4,51.64,51.64,0,0,0,.76-8.27,42.3,42.3,0,0,0-.93-8.91A41,41,0,0,0,117,414.61a39.22,39.22,0,0,0-10.28-9.54,35.81,35.81,0,0,0-8.51-4C96,400.39,94.82,400.24,94.78,400.38Z"></path></g></g><g id="freepik--Character--inject-92"><path d="M231.94,174.65s-3.84-3.9-4.76-4.14-4.93-.85-5.36-.45a2,2,0,0,1-.86.51s-3.42.47-3.69,2-.07,2.26-.35,2.5a2.55,2.55,0,0,0-.75,2.16,7.78,7.78,0,0,1,.47,2.37,6.94,6.94,0,0,0-.21,1.89,7.55,7.55,0,0,0,.62,1.83,2.06,2.06,0,0,0,.44,2.07c.88.76,3.94.77,5,.7,1.33-.09,4.12.25,5-.18a10.52,10.52,0,0,1,1.63-.66l7.31.35,1.9-9.35Z" style="fill:#ffbf9d"></path><path d="M226.2,180.27a6.87,6.87,0,0,1-1.53-1,4.79,4.79,0,0,1-1.12-1.7,4.39,4.39,0,0,1-.23-2.49l.2-.94-.53.8a4.66,4.66,0,0,1-1.23,1.42,1.55,1.55,0,0,1-1.48.15,1.06,1.06,0,0,1-.51-1.19,8.47,8.47,0,0,1,.38-1.38q.21-.65.42-1.2c.54-1.45,1-2.32.92-2.35a2.49,2.49,0,0,0-.37.58c-.21.38-.49.95-.8,1.67-.15.36-.31.76-.47,1.2a9.72,9.72,0,0,0-.42,1.43,1.74,1.74,0,0,0,.06.87,1.24,1.24,0,0,0,.63.7,1.89,1.89,0,0,0,1.84-.16,5.06,5.06,0,0,0,1.34-1.54L223,175a4.52,4.52,0,0,0,.29,2.69,4.72,4.72,0,0,0,1.25,1.75,4.17,4.17,0,0,0,1.2.75A1.24,1.24,0,0,0,226.2,180.27Z" style="fill:#ff9a6c"></path><path d="M217.37,174.81c0,.1.52.13,1.12.19s1.11.14,1.14,0-.45-.34-1.1-.4S217.36,174.71,217.37,174.81Z" style="fill:#ff9a6c"></path><path d="M218.82,178.52a5.89,5.89,0,0,0,2.66.53,9.29,9.29,0,0,0,1.07,0,1.39,1.39,0,0,0,.86-.37.76.76,0,0,0,.24-.6c0-.15-.08-.22-.09-.21s0,.34-.33.61-1,.23-1.74.22C220,178.63,218.84,178.41,218.82,178.52Z" style="fill:#ff9a6c"></path><path d="M218.17,182.26a4.18,4.18,0,0,0,1.24.11l1.33,0a10.81,10.81,0,0,0,1.67-.06,1.63,1.63,0,0,0,.85-.42,1.59,1.59,0,0,0,.42-.77,1.67,1.67,0,0,0-.28-1.39c-.5-.66-1-.75-1-.71s.44.24.82.85a1.52,1.52,0,0,1,.17,1.17,1.21,1.21,0,0,1-1,.9,14.71,14.71,0,0,1-1.6.09l-1.34.06A3.66,3.66,0,0,0,218.17,182.26Z" style="fill:#ff9a6c"></path><path d="M222.2,186s.39.08.82-.31a1.68,1.68,0,0,0,.5-.86,1.83,1.83,0,0,0-.16-1.2,2.29,2.29,0,0,0-1.72-1.22c-.54-.08-.87,0-.86.07s.32.06.8.19a2.23,2.23,0,0,1,1.44,1.12,1.53,1.53,0,0,1-.19,1.71C222.52,185.85,222.19,185.92,222.2,186Z" style="fill:#ff9a6c"></path><path d="M270.55,138.11a16,16,0,0,0-7.32,8.77c-2,6.09-6,27.37-6,27.37l-23.19,1L231.74,186a168.56,168.56,0,0,0,28.11,4.52c10.14.56,13.84-7.19,13.84-7.19s8.37-30.46,8.56-35.16c.26-6.41-2.95-11-7-11.34A9.25,9.25,0,0,0,270.55,138.11Z" style="fill:#e0e0e0"></path><path d="M270.55,138.11a4.86,4.86,0,0,1,.93-.52,10.15,10.15,0,0,1,3-.81,5.5,5.5,0,0,1,2.24.29,7,7,0,0,1,2.31,1.39,10.54,10.54,0,0,1,3.1,5.79,17,17,0,0,1,.33,3.9,36.58,36.58,0,0,1-.68,4.22c-.6,2.89-1.33,6-2.13,9.27-1.63,6.56-3.54,13.89-5.69,21.77v0h0a14.07,14.07,0,0,1-5.27,5.37,15.77,15.77,0,0,1-3.62,1.49,16.74,16.74,0,0,1-3.94.49,76.16,76.16,0,0,1-8.06-.61c-2.71-.31-5.45-.71-8.21-1.18-4.5-.78-8.89-1.68-13.13-2.74l-.24-.06.05-.25q1.22-5.52,2.36-10.78l0-.19h.19l23.19-1-.2.18c1.12-5.88,2.21-11.25,3.24-16a113.08,113.08,0,0,1,3.09-12.16,15.49,15.49,0,0,1,4.77-6.42,16.55,16.55,0,0,1,1.74-1.21,5.15,5.15,0,0,1,.64-.33l-.6.39a16.44,16.44,0,0,0-1.7,1.26,15.55,15.55,0,0,0-4.62,6.4,118.2,118.2,0,0,0-3,12.14c-1,4.74-2,10.11-3.16,16l0,.17h-.17l-23.19,1,.24-.2q-1.14,5.25-2.35,10.78l-.18-.3c4.22,1,8.61,1.95,13.09,2.72q4.13.7,8.18,1.19a78.42,78.42,0,0,0,8,.61,16.94,16.94,0,0,0,3.83-.47,15.25,15.25,0,0,0,3.49-1.43,13.71,13.71,0,0,0,5.08-5.15l0,0c2.16-7.87,4.11-15.19,5.76-21.74.82-3.28,1.57-6.36,2.18-9.24a35.09,35.09,0,0,0,.7-4.16,16.44,16.44,0,0,0-.3-3.83,10.32,10.32,0,0,0-3-5.68,6.84,6.84,0,0,0-2.23-1.38,5.47,5.47,0,0,0-2.16-.31,10.35,10.35,0,0,0-2.94.73c-.32.13-.56.24-.71.32S270.56,138.12,270.55,138.11Z" style="fill:#263238"></path><path d="M384.67,418.76a26.93,26.93,0,0,1-18.54-10.87c-6.17-8.56-6.71-19.77-7.84-30.26a202.75,202.75,0,0,0-6.44-33.21c-2-6.89-5-14.49-11.67-17.07l-6.86,15.73c3.68,19.87-6.37,41.11.33,60.18,3.08,8.76,9.45,16.05,16.75,21.79,6.2,4.89,13.28,8.87,21,10.51s16.17.75,22.88-3.42,11.36-11.89,10.91-19.78A27,27,0,0,1,384.67,418.76Z" style="fill:#6f4439"></path><path d="M407.09,399.86a1.12,1.12,0,0,1-.13.33l-.43.94a22,22,0,0,1-2.1,3.38,24.28,24.28,0,0,1-4.38,4.52,24.79,24.79,0,0,1-7.28,4.05,23.58,23.58,0,0,1-10,1.19,25.44,25.44,0,0,1-10.95-3.77,24.23,24.23,0,0,1-4.84-4,26.81,26.81,0,0,1-3.77-5.39,38.83,38.83,0,0,1-4-13.16,91.89,91.89,0,0,1-.62-13.75c0-4.43.15-8.71-.07-12.77A51.4,51.4,0,0,0,356.81,350a38.5,38.5,0,0,0-3.92-9.2,40.42,40.42,0,0,0-9.42-11,39.07,39.07,0,0,0-3.19-2.34l-.86-.57c-.19-.13-.29-.2-.28-.21a29.9,29.9,0,0,1,4.46,3,39.67,39.67,0,0,1,9.61,10.95,38.62,38.62,0,0,1,4,9.27A51.76,51.76,0,0,1,359,361.37c.23,4.09.14,8.38.1,12.81a92,92,0,0,0,.63,13.67,38.58,38.58,0,0,0,3.9,13,26.55,26.55,0,0,0,3.68,5.29,23.58,23.58,0,0,0,4.74,4,25,25,0,0,0,10.73,3.75,23.36,23.36,0,0,0,9.86-1.11,24.77,24.77,0,0,0,7.22-3.92,25.29,25.29,0,0,0,4.4-4.42,24.15,24.15,0,0,0,2.17-3.31l.47-.91A1.73,1.73,0,0,1,407.09,399.86Z" style="fill:#6f4439"></path><path d="M261.81,198l-19-2.48.44,8.41,28.49,2.64s-.08-6.61-.69-6.67-9.26-1.9-9.26-1.9" style="fill:#263238"></path><path d="M138.1,218.07c.79,9.31,3.12,21.59,3.12,21.59s-11.84,8-19.93,9.41-26.22,10.1-27.39,15.18.81,15.95.81,15.95l11.75,29.42,33,23s3.89-15.48-3.27-24.45l-1.32-1.65-15.72-10.2s-5.28-6.61-6.36-11.7a102.28,102.28,0,0,0-3.39-11.37s40.58-4.78,44.59-5.63,11.12,3.75,14.43,1.12,7-14.07,7-14.07l-.6-24.06" style="fill:#ae7461"></path><path d="M138.1,218.07c.79,9.31,3.12,21.59,3.12,21.59s-11.84,8-19.93,9.41-26.22,10.1-27.39,15.18.81,15.95.81,15.95l11.75,29.42,33,23s3.89-15.48-3.27-24.45l-1.32-1.65-15.72-10.2s-5.28-6.61-6.36-11.7a102.28,102.28,0,0,0-3.39-11.37s40.58-4.78,44.59-5.63,11.12,3.75,14.43,1.12,7-14.07,7-14.07l-.6-24.06" style="fill:#6f4439"></path><path d="M289.41,263.82l-38.79,58.34s8.51-.94,4.73,8.84-3.47,17.66-4.73,23,10.09,26.49,14.19,33.43,16.72,24.28,14.51,34.06-21.13,35-21.13,35S248.41,453.05,239,472H270.8s17.67-35,23.34-45.41,10.73-15.46,10.73-15.46v-6.94s-10.73-8.51-13.88-26.8L289.41,372s19.56-9.46,25.86-18.29,11.34-23.26,11.36-29C326.68,303.3,317,289.28,289.41,263.82Z" style="fill:#6f4439"></path><path d="M250.21,458.11l21.41,12.24L270.8,472H239S244,460.28,250.21,458.11Z" style="fill:#e0e0e0"></path><g style="opacity:0.30000000000000004"><path d="M250.21,458.11l21.41,12.24L270.8,472H239S244,460.28,250.21,458.11Z"></path></g><path d="M246.37,178.37c-8.91-17.28-18.32-21.64-15.73-40.9.55-4.07,1.48-8.41-.23-12.14-1.31-2.86-3.94-4.84-6.12-7.11-4.85-5-7.56-11.72-11.28-17.65S190.87,72.51,179.35,81.2L228.56,211C232.36,215.83,252.19,195.49,246.37,178.37Z" style="fill:#6f4439"></path><path d="M174,138.08s-4.22,6.21-5.48,8.1-11,17-12.93,29.33.31,13.56-3.79,20.19S136,208.63,137.94,226.6s12.61,31.86,22.7,46.36,32.22,33.39,49.93,38.6c21.84,6.41,54.78,21,59.83,29.21s8.2,6,8.2,6l29.64-82.94-65-59.92S222.88,187.5,223,173.3s-1.4-41.66-15-65.63-22.4-26.59-23.68-26.82c-4.55-.82-18.66,2.57-18.66,2.57s-11,8.51-13.88,9.78-3.15,5-6.3,7.88-26.18,21.45-28.39,27.44-.94,12.3,2.52,15.77,8.84.63,8.84.63l.94,1.89s3.79,2.52,7.26,1.89,7.88-4.41,11.35-5S174,138.08,174,138.08Z" style="fill:#ae7461"></path><path d="M183.82,81.56a53.27,53.27,0,0,1,16.39-14.42s1.64,3.78,0,11.69c-1.7,8.15-3.35,14.09-3.35,14.09l-9.7-4.31Z" style="fill:#ae7461"></path><path d="M166.9,83.19s4-16,4.41-16.73a21,21,0,0,1,8.79,16.73L172,87Z" style="fill:#ae7461"></path><path d="M121.83,136.14s-.18-10.32,3.44-8.87.91,4.89,0,6.34S121.83,136.14,121.83,136.14Z" style="fill:#263238"></path><path d="M144.82,133.53a15.77,15.77,0,0,1-2.33,1.76c-1.49,1-3.56,2.42-5.79,4.05l-8.12,5.8c-.19-.22,3.33-3,7.82-6.23,2.23-1.62,4.35-3,5.88-3.92A17,17,0,0,1,144.82,133.53Z" style="fill:#263238"></path><path d="M192.34,87.38a51.67,51.67,0,0,1,1.92-8.71,17.47,17.47,0,0,1,4.67-7.5c-.06,6.32-2,11.91-6.59,16.21" style="fill:#6f4439"></path><path d="M170.52,193.5a1.26,1.26,0,0,1,.07.44,4.16,4.16,0,0,1-.11,1.27,7.79,7.79,0,0,1-2.5,3.94c-.73.68-1.59,1.33-2.49,2-.46.35-.9.75-1.36,1.15l-.69.61-.67.69a28.92,28.92,0,0,0-4.93,6.72A31.19,31.19,0,0,0,154.18,225a46.77,46.77,0,0,0,.64,6.29,8.88,8.88,0,0,1-.45-1.65,27.7,27.7,0,0,1-.56-4.63,30.31,30.31,0,0,1,3.57-14.87,28.45,28.45,0,0,1,5.05-6.82l.69-.69.71-.61c.47-.41.92-.81,1.39-1.15.92-.7,1.79-1.33,2.51-2a7.86,7.86,0,0,0,2.56-3.71A8.54,8.54,0,0,0,170.52,193.5Z" style="fill:#6f4439"></path><path d="M242.4,171.43a1.65,1.65,0,0,1,.34.17,3.73,3.73,0,0,1,.89.66,2.37,2.37,0,0,1,.74,1.64,3.92,3.92,0,0,1-1,2.28,17.57,17.57,0,0,1-5.34,4.09,15.21,15.21,0,0,1-1.86.87c-.68.23-1.37.42-2.08.63-1.43.43-2.94.86-4.53,1.3-6.36,1.75-14,3.62-22.6,5.15-4.3.78-8.84,1.41-13.57,1.89a110.85,110.85,0,0,1-14.7.56c-1.27,0-2.52-.1-3.76-.2l-1.86-.14c-.62-.07-1.23-.18-1.84-.27l-.92-.14-.89-.22-1.78-.46a34.15,34.15,0,0,1-3.37-1.32,35.17,35.17,0,0,1-11-8.14,57.22,57.22,0,0,1-7.42-9.95,87.42,87.42,0,0,1-4.95-9.6,110.75,110.75,0,0,1-5.26-14.72c-.5-1.78-.84-3.17-1.05-4.12-.1-.45-.18-.81-.23-1.08a1.8,1.8,0,0,1-.06-.37,1.4,1.4,0,0,1,.11.36l.28,1.07c.24.93.61,2.32,1.14,4.08a117.42,117.42,0,0,0,5.41,14.63,86.36,86.36,0,0,0,5,9.53,57.06,57.06,0,0,0,7.4,9.84,35.22,35.22,0,0,0,10.87,8,33.87,33.87,0,0,0,3.31,1.29l1.75.44.88.22.89.14c.6.09,1.2.19,1.81.27L175,190c1.23.1,2.48.2,3.73.2a111.68,111.68,0,0,0,14.64-.55c4.71-.47,9.25-1.09,13.54-1.85,8.58-1.5,16.22-3.33,22.59-5l4.53-1.25c.71-.21,1.42-.4,2.06-.61a15.39,15.39,0,0,0,1.83-.84,17.45,17.45,0,0,0,5.32-4,3.67,3.67,0,0,0,1-2.15,2.2,2.2,0,0,0-.66-1.56A7.28,7.28,0,0,0,242.4,171.43Z" style="fill:#263238"></path><path d="M154.1,222c-1.17,9.26,3.08,20.36,3.08,20.36s-13.25,5.36-21.45,5-27.75,4.41-30,9.14-2.53,15.77-2.53,15.77l5.37,31.23L136,332.89s7-14.33,1.9-24.6L137,306.4l-13.25-13.25S120,285.58,120,280.38a100.55,100.55,0,0,0-.95-11.83s40.69,3.78,44.79,3.78,10.09,6,13.88,4.1,9.77-12.3,9.77-12.3l4.42-23.65" style="fill:#ae7461"></path><path d="M191.87,240.48l-.06.4c-.05.28-.11.66-.2,1.17-.19,1-.46,2.59-.82,4.59-.74,4-1.82,9.95-3.21,17.52v0c-1.1,1.88-2.33,3.84-3.74,5.85-.7,1-1.46,2-2.28,3a18.05,18.05,0,0,1-2.81,2.86,6,6,0,0,1-.87.58,4.36,4.36,0,0,1-1,.37,5.25,5.25,0,0,1-2.16-.07,17.25,17.25,0,0,1-4.06-1.63c-1.33-.66-2.65-1.4-4.06-2a8.75,8.75,0,0,0-2.18-.62c-.73-.09-1.57-.06-2.36-.13-12.74-.88-27.24-2.24-43-3.66l.26-.27a99.74,99.74,0,0,1,1,12.37,23.38,23.38,0,0,0,1.31,6.16,48.79,48.79,0,0,0,2.43,6l0-.07,13.25,13.24,0,0,0,0c.4.85.88,1.65,1.23,2.55l.56,1.34.39,1.4.19.7.12.72c.07.48.16,1,.22,1.45a28.67,28.67,0,0,1,.12,2.94,31,31,0,0,1-.63,5.9,41,41,0,0,1-1.57,5.79,39.24,39.24,0,0,1-1.57,3.93l-.16.35-.27-.28-27.43-29.34,0-.06v-.07c-1.88-11-3.66-21.41-5.34-31.23v0a78,78,0,0,1,1.15-11,19.43,19.43,0,0,1,1.55-5.12,6.38,6.38,0,0,1,1.9-1.87,18,18,0,0,1,2.23-1.31,52.45,52.45,0,0,1,9.3-3.33,83,83,0,0,1,9-1.9,46.47,46.47,0,0,1,8.53-.58,37.66,37.66,0,0,0,7.7-1,93.23,93.23,0,0,0,12.72-4l-.07.16a54.72,54.72,0,0,1-3.18-15.09,33.6,33.6,0,0,1,.06-4c.09-.89.16-1.34.16-1.34s0,.45-.09,1.34a36.56,36.56,0,0,0,0,4,55.78,55.78,0,0,0,3.28,15l0,.11-.11.05a92.64,92.64,0,0,1-12.74,4,37.92,37.92,0,0,1-7.77,1.08,45.15,45.15,0,0,0-8.48.6,82.72,82.72,0,0,0-9,1.91,52.34,52.34,0,0,0-9.21,3.33,17.75,17.75,0,0,0-2.18,1.28,5.84,5.84,0,0,0-1.76,1.74,19.21,19.21,0,0,0-1.5,5,76.92,76.92,0,0,0-1.11,10.91v0c1.69,9.82,3.49,20.26,5.38,31.22l-.06-.12,27.44,29.32-.42.06a43.42,43.42,0,0,0,3.1-9.59,30.19,30.19,0,0,0,.62-5.81,25.12,25.12,0,0,0-.11-2.88c-.06-.47-.15-.94-.22-1.41l-.12-.7-.19-.68-.37-1.36-.55-1.29c-.32-.87-.81-1.7-1.21-2.54l.05.07-13.24-13.25,0,0,0,0a49.81,49.81,0,0,1-2.46-6.05,24.4,24.4,0,0,1-1.32-6.3,100.92,100.92,0,0,0-1-12.33l0-.3.3,0c15.8,1.45,30.3,2.84,43,3.75.8.07,1.55,0,2.38.14a8.8,8.8,0,0,1,2.28.66c1.43.59,2.76,1.33,4.07,2a17,17,0,0,0,4,1.61,5.06,5.06,0,0,0,2,.08,4.51,4.51,0,0,0,.93-.34,6.18,6.18,0,0,0,.82-.55,17.75,17.75,0,0,0,2.76-2.79c.82-1,1.58-2,2.28-3,1.41-2,2.65-3.95,3.76-5.81l0,0c1.44-7.56,2.56-13.46,3.33-17.49.39-2,.69-3.53.89-4.58.1-.51.18-.89.24-1.17S191.87,240.48,191.87,240.48Z" style="fill:#6f4439"></path><path d="M127.89,324.83c0-.55-.83-12.72,11-15.07l2.08,2.49-2.49,20.6a3.62,3.62,0,0,1-2.63-.69C134.38,331.19,127.89,324.83,127.89,324.83Z" style="fill:#e0e0e0"></path><path d="M124.79,138.08a21,21,0,0,1,1.94-1.8,11.66,11.66,0,0,0,3.45-5.09,6.21,6.21,0,0,0,.08-3.33,5.27,5.27,0,0,0-1.39-2.33,5.9,5.9,0,0,0-2.23-1.23,3.27,3.27,0,0,1,2.48,1,5.29,5.29,0,0,1,1.6,2.47,6.49,6.49,0,0,1,0,3.6,11,11,0,0,1-3.71,5.23A9.78,9.78,0,0,1,124.79,138.08Z" style="fill:#263238"></path><path d="M171.31,97.86c-.06.06-.4-.24-1-.56a5.63,5.63,0,0,0-2.54-.71,5.8,5.8,0,0,0-2.58.57c-.62.3-1,.57-1,.51s.23-.42.85-.83a4.9,4.9,0,0,1,2.77-.77,5,5,0,0,1,2.72.91C171.1,97.42,171.35,97.82,171.31,97.86Z" style="fill:#263238"></path><path d="M180.57,80.6a51.09,51.09,0,0,1-7.16,1.53,51.91,51.91,0,0,1-7.25,1,51.09,51.09,0,0,1,7.16-1.53A51.91,51.91,0,0,1,180.57,80.6Z" style="fill:#263238"></path><g style="opacity:0.2"><path d="M131.55,126.06a3.49,3.49,0,0,0-3.31-1.24,6.17,6.17,0,0,1,2.49,5.43c-.21,2.46-3.78,5.89-5.58,7.44a11.54,11.54,0,0,0,6.09-4.7,7.84,7.84,0,0,0,1.29-3.45A4.8,4.8,0,0,0,131.55,126.06Z"></path></g><g style="opacity:0.2"><path d="M190.9,117.56a12.09,12.09,0,0,1,0,11.13c-1.8,3.42-5.51,6.35-9.35,6.78l-4.35,1.43a23.69,23.69,0,0,0,10.62-2.58,11,11,0,0,0,6.09-7.6A9.78,9.78,0,0,0,190.9,117.56Z"></path></g><path d="M174,138.08a5.46,5.46,0,0,1,1.32-.65c.87-.36,2.17-.8,3.77-1.34s3.5-1.17,5.51-2.08a13.32,13.32,0,0,0,2.94-1.76,12.15,12.15,0,0,0,4.45-9.42,12.06,12.06,0,0,0-1.5-5.57,14.72,14.72,0,0,0-3.47-4.1s.12,0,.34.18a9.34,9.34,0,0,1,.88.65,11.85,11.85,0,0,1,2.57,3.09,11.9,11.9,0,0,1-.38,12.74,12.47,12.47,0,0,1-2.57,2.83,13.77,13.77,0,0,1-3.06,1.8,51.83,51.83,0,0,1-5.6,2c-1.61.49-2.92.89-3.81,1.18S174,138.11,174,138.08Z" style="fill:#6f4439"></path><g style="opacity:0.2"><path d="M158.05,209.56c-5.19,5.66-6.68,13.77-6.94,21.44a58.42,58.42,0,0,0,.19,7.6c.15,1.57.22,4.78,1.4,5.83l5.35-2.31s-5.75-12.6-3.49-21.84S158.05,209.56,158.05,209.56Z"></path></g><path d="M236.6,193.84s-19.09-1.89-18.18,11.69,15.71,32.73,26.41,41.71S268.06,266.5,279.22,265s21.32-12,21.32-12Z" style="fill:#455a64"></path><path d="M236.6,193.84s-3.29-10.67-3.73-15.47-5.24-6.48-7.64-6.26-20.09,14.74-22.5,26.31,2.41,19.82,7.65,30.77,48.49,41.31,66,46.56,19.44,3.05,22.94-5c1.51-3.49,2.65-6.62,3.47-9a8.2,8.2,0,0,0-2.21-8.63l-4.85-4.47s2.5-5.6-.78-14.12c0,0,5.46-4.36,5.46-7a7.6,7.6,0,0,0-1.09-4.15s-18.63,8.9-24.61,5.87-28.55-26.33-28.55-26.33Z" style="fill:#C6FF00"></path><g style="opacity:0.2"><path d="M236.6,193.84s-19.09-1.89-18.18,11.69,15.71,32.73,26.41,41.71,28.25,20.78,39.41,19.29,16.3-13.48,16.3-13.48l-4.93-4.87C254.06,235.61,243.9,214.68,236.6,193.84Z"></path></g><g style="opacity:0.2"><path d="M295.38,222A28.32,28.32,0,0,1,273,233.11c-14.64-.07-32.75-1.84-32.75-1.84l-20.45,61-9.27-2.54,25.24-73.24,41.6,2.88Z"></path></g><path d="M293.91,234.26a4.21,4.21,0,0,1-1,.11c-.64,0-1.57.07-2.71.08a43.74,43.74,0,0,1-8.94-.69,22.06,22.06,0,0,1-8.32-3.35,14.76,14.76,0,0,1-2.1-1.74c-.45-.47-.67-.75-.64-.77s1,1,2.94,2.2a24,24,0,0,0,8.22,3.15,52.91,52.91,0,0,0,8.84.83A29.86,29.86,0,0,1,293.91,234.26Z" style="fill:#263238"></path><path d="M295.61,248.18a3,3,0,0,1-.49-.09l-1.38-.33c-1.2-.29-2.91-.79-5-1.48s-4.56-1.61-7.24-2.76-5.56-2.56-8.51-4.2-5.63-3.39-8-5.06-4.46-3.3-6.13-4.73-3-2.63-3.88-3.5l-1-1a1.92,1.92,0,0,1-.33-.37s.15.09.4.29l1.07.93c.91.83,2.27,2,4,3.36s3.79,3,6.17,4.63,5.09,3.35,8,5,5.79,3,8.44,4.21,5.09,2.13,7.17,2.85,3.76,1.28,4.94,1.63l1.35.43A1.81,1.81,0,0,1,295.61,248.18Z" style="fill:#263238"></path><path d="M264.14,318.47a9.26,9.26,0,0,1,1.66.3,17.45,17.45,0,0,1,4.33,1.5,9.24,9.24,0,0,1,2.54,2,6.69,6.69,0,0,1,1.64,3.31,11.87,11.87,0,0,1-.15,4.06c-.26,1.36-.54,2.77-.82,4.21-1.15,5.77-2.22,11-3,14.76l-1,4.45a11.9,11.9,0,0,1-.42,1.63,10,10,0,0,1,.23-1.67c.2-1.14.47-2.66.8-4.49.71-3.78,1.72-9,2.87-14.78.5-2.88,1.39-5.63,1-8.09a6.15,6.15,0,0,0-1.48-3.11,9.38,9.38,0,0,0-2.4-1.92,19.76,19.76,0,0,0-4.2-1.63A11.49,11.49,0,0,1,264.14,318.47Z" style="fill:#6f4439"></path><g style="opacity:0.2"><path d="M269.83,320.32s-2.39.05-.67,6.78a95.1,95.1,0,0,1,2.23,15.18S275,330.7,274.18,326,269.83,320.32,269.83,320.32Z"></path></g><path d="M308.24,263.82l-38.1,55.71s6.94,4.11,4,11.47c-3.83,9.75-3.47,17.66-4.73,23s10.09,26.49,14.19,33.43,16.72,24.28,14.51,34.06-21.13,35-21.13,35-9.78-3.47-19.24,15.45h31.86S307.3,437,313,426.56,323.7,411.1,323.7,411.1v-6.94s-10.73-8.51-13.88-26.8L308.24,372s19.56-9.46,25.87-18.29,11.33-23.26,11.35-29C345.52,303.3,335.85,289.28,308.24,263.82Z" style="fill:#ae7461"></path><path d="M269.05,458.11l21.41,12.24-.82,1.62H257.78S262.84,460.28,269.05,458.11Z" style="fill:#e0e0e0"></path><path d="M309.91,356.77a43,43,0,0,0-1.87,7.39,43.78,43.78,0,0,0,0,7.62,7.45,7.45,0,0,1-.5-2.21,21.63,21.63,0,0,1,0-5.48,22.15,22.15,0,0,1,1.35-5.3A7.15,7.15,0,0,1,309.91,356.77Z" style="fill:#6f4439"></path><path d="M230.72,156a5.76,5.76,0,0,1,.32-.66l1-1.84a67.8,67.8,0,0,0,3.31-6.92,26,26,0,0,0,2.06-11,16.16,16.16,0,0,0-1.63-6.39,22.55,22.55,0,0,0-4.28-5.69c-1.73-1.75-3.58-3.31-5.31-4.88s-3.41-3.08-5-4.56c-3.12-3-5.82-5.74-8-8.18s-3.78-4.52-4.85-6c-.54-.73-.94-1.31-1.2-1.71a4.63,4.63,0,0,1-.39-.62,3.12,3.12,0,0,1,.47.56l1.28,1.65c1.12,1.43,2.78,3.47,5,5.86s4.9,5.15,8,8.08c1.57,1.46,3.23,3,5,4.53s3.59,3.12,5.34,4.9a22.77,22.77,0,0,1,4.37,5.83,16.68,16.68,0,0,1,1.65,6.58,26.09,26.09,0,0,1-2.19,11.2,60.48,60.48,0,0,1-3.48,6.87l-1.07,1.81A3.27,3.27,0,0,1,230.72,156Z" style="fill:#6f4439"></path><path d="M240.78,168.23a9,9,0,0,1-.59,1.18,18.47,18.47,0,0,1-2.23,3.08,23.58,23.58,0,0,1-4.55,3.93,31.55,31.55,0,0,1-7.15,3.51,61.56,61.56,0,0,1-9.35,2.37c-3.4.63-7.07,1.17-10.94,1.59s-8,.7-12.2.81a102.41,102.41,0,0,1-13.13-.4,44.59,44.59,0,0,1-12.76-3.11,38.62,38.62,0,0,1-10.31-6.59,60,60,0,0,1-12.64-16.33c-2.83-5.17-4.7-9.56-6-12.58-.63-1.5-1.12-2.67-1.46-3.5-.16-.38-.28-.68-.37-.91S137,141,137,141s.06.09.16.3.24.52.41.89l1.56,3.46c1.36,3,3.28,7.35,6.14,12.48a60.43,60.43,0,0,0,12.64,16.15,38.2,38.2,0,0,0,10.19,6.48,44.11,44.11,0,0,0,12.62,3.06,103,103,0,0,0,13.06.41c4.22-.1,8.29-.37,12.16-.77s7.52-.94,10.92-1.55a62.64,62.64,0,0,0,9.3-2.29,31.59,31.59,0,0,0,7.11-3.4,23.88,23.88,0,0,0,4.56-3.83,20.1,20.1,0,0,0,2.29-3C240.55,168.62,240.76,168.22,240.78,168.23Z" style="fill:#263238"></path><path d="M170.6,107.22a9.64,9.64,0,0,0-4.45-4.21,2.74,2.74,0,0,0-1.7-.34,1.68,1.68,0,0,0-1.17,1A3.23,3.23,0,0,0,163,105a16.32,16.32,0,0,0,.58,4.38,1.82,1.82,0,0,0,1,1.35,2.39,2.39,0,0,0,1.69-.23,10.51,10.51,0,0,0,4.31-3.31" style="fill:#fff"></path><path d="M163,105a3.23,3.23,0,0,1,.24-1.41,1.68,1.68,0,0,1,1.17-1,2.74,2.74,0,0,1,1.7.34,11.46,11.46,0,0,1,1.76,1.07,1.09,1.09,0,0,0,.11.1l.24.23a7.85,7.85,0,0,1-2.15,5.56,2.74,2.74,0,0,1-.85.67,1.53,1.53,0,0,1-.59.13h-.07a1.82,1.82,0,0,1-1-1.35A16.32,16.32,0,0,1,163,105Z" style="fill:#263238"></path><path d="M162.61,107.33c-.05,0,.1-.79.15-2.12a3.6,3.6,0,0,1,.82-2.26,2,2,0,0,1,1.38-.65,3.15,3.15,0,0,1,1.5.5,11.23,11.23,0,0,1,3.82,3.54,4.85,4.85,0,0,1,.92,1.94c-.07,0-.43-.7-1.22-1.73a12.45,12.45,0,0,0-3.77-3.29,2.65,2.65,0,0,0-1.25-.45,1.5,1.5,0,0,0-1,.47,3.59,3.59,0,0,0-.81,2A4.46,4.46,0,0,1,162.61,107.33Z" style="fill:#263238"></path><polygon points="133.42 139.03 134.62 141.61 184.22 105.64 182.27 102.57 133.42 139.03" style="fill:#263238"></polygon><path d="M160.31,87.47s6.29-2,10.9.47,13.13,16.76,13.13,16.76l2.24-3.63s-7.41-9.78-10.48-13.13-10.7-4.31-10.7-4.31Z" style="fill:#263238"></path><path d="M189.79,102.26a4.4,4.4,0,1,1-4.4-4.4A4.4,4.4,0,0,1,189.79,102.26Z" style="fill:#263238"></path><path d="M189.79,102.26s0-.39-.24-1.05a4.39,4.39,0,0,0-1.61-2.3,4.18,4.18,0,1,0,0,6.7,4.46,4.46,0,0,0,1.61-2.3c.19-.66.19-1,.24-1s0,.09,0,.28a3.46,3.46,0,0,1-.08.82,4.41,4.41,0,0,1-1.59,2.54,4.57,4.57,0,0,1-4.35.72,4.63,4.63,0,0,1,0-8.72,4.55,4.55,0,0,1,4.35.71,4.43,4.43,0,0,1,1.59,2.55,3.43,3.43,0,0,1,.08.81C189.82,102.16,189.81,102.26,189.79,102.26Z" style="fill:#455a64"></path><path d="M185.39,103.28a9.72,9.72,0,0,1,.05,1.53c0,1,0,2.4-.07,4.15a66.5,66.5,0,0,1-1.55,13.63,30.72,30.72,0,0,1-2.6,7.13,24.37,24.37,0,0,1-3.8,4.9,32.56,32.56,0,0,1-3.09,2.79,6.15,6.15,0,0,1-1.25.87,10.21,10.21,0,0,1,1.12-1c.72-.65,1.77-1.61,3-2.89a25.28,25.28,0,0,0,3.64-4.87,31.79,31.79,0,0,0,2.51-7A74.77,74.77,0,0,0,185,109c.1-1.68.17-3.08.23-4.15A8.26,8.26,0,0,1,185.39,103.28Z" style="fill:#263238"></path><path d="M139,139.43a3.59,3.59,0,1,1-3.59-3.59A3.59,3.59,0,0,1,139,139.43Z" style="fill:#263238"></path><path d="M139,139.43c-.05,0-.05-.32-.21-.85a3.59,3.59,0,0,0-1.32-1.85,3.42,3.42,0,0,0-3.2-.44,3.35,3.35,0,0,0,0,6.29,3.44,3.44,0,0,0,3.2-.44,3.65,3.65,0,0,0,1.32-1.86c.16-.53.16-.85.21-.85a1.8,1.8,0,0,1,0,.9,3.52,3.52,0,0,1-1.29,2.1,3.74,3.74,0,0,1-3.58.6,3.81,3.81,0,0,1,0-7.19,3.74,3.74,0,0,1,3.58.59,3.52,3.52,0,0,1,1.29,2.1A1.8,1.8,0,0,1,139,139.43Z" style="fill:#455a64"></path><path d="M293.81,130.33s7.13,1.89,12.61,3.81c0,0,9.81,4.44,9.63,15.89s-4.17,39-4.17,39-2,13.32-3.14,17.94a7.24,7.24,0,0,1-4.74,5.56l-40.55-14.21s.23,0,1.7-3.2,1.36-11.61,1.36-12.42.21-29.7.33-38.78c0-3.45,11.9-8.65,11.9-8.65,2.93-3,15.77-10.36,15.77-10.36Z" style="fill:#e0e0e0"></path><path d="M273.67,137l-5,58.62-2.16-3.3.58-37.43,2.16-16A9.84,9.84,0,0,1,273.67,137Z" style="fill:#C6FF00"></path><path d="M267.06,149.11a9.41,9.41,0,0,1,0,1.67c0,1.17-.05,2.71-.08,4.56-.08,3.86-.19,9.18-.25,15s-.06,11.21,0,15.06c0,1.86,0,3.4,0,4.56a11.17,11.17,0,0,1-.07,1.68,9.12,9.12,0,0,1-.14-1.67c-.05-1.08-.1-2.64-.15-4.57-.1-3.85-.15-9.18-.1-15.06s.23-11.21.4-15.06c.09-1.92.17-3.48.25-4.56A11.13,11.13,0,0,1,267.06,149.11Z" style="fill:#263238"></path><path d="M280.37,195.1c-.14,0,.57-8.21,1.59-18.3s2-18.25,2.11-18.24-.57,8.21-1.59,18.3S280.52,195.11,280.37,195.1Z" style="fill:#263238"></path><path d="M284.31,196c0,.16-3.2.11-7.07.75s-6.89,1.7-6.94,1.55a6.61,6.61,0,0,1,1.93-.84,31.29,31.29,0,0,1,4.93-1.22,29.83,29.83,0,0,1,5.06-.41A6.58,6.58,0,0,1,284.31,196Z" style="fill:#263238"></path><path d="M290.31,194.93a13.71,13.71,0,0,1-2.54-.27c-1.55-.21-3.7-.48-6.08-.69s-4.54-.33-6.11-.39a15.51,15.51,0,0,1-2.54-.18,11,11,0,0,1,2.55-.19,61.75,61.75,0,0,1,12.24,1.09A11.4,11.4,0,0,1,290.31,194.93Z" style="fill:#263238"></path><path d="M204.42,263.25l-6.87,17.68s-20.28-1.05-21.87,2.09l33.8,14.56,11.84-27.11Z" style="fill:#455a64"></path><path d="M209.48,297.58l1.09-2.78-32.82-12.92s-1.78,0-2.07,1.14Z" style="fill:#263238"></path><path d="M197.37,280.84c-.06.17.73.6,1.31,1.48s.72,1.76.9,1.76.35-1.06-.38-2.11S197.4,280.67,197.37,280.84Z" style="fill:#fff"></path><path d="M193,280.8c-.11.14.48.73.74,1.67s.11,1.75.28,1.81.67-.82.32-2S193.06,280.64,193,280.8Z" style="fill:#fff"></path><path d="M189.08,284.33c.14.09.72-.63.69-1.72s-.65-1.78-.78-1.67.14.8.15,1.69S188.93,284.24,189.08,284.33Z" style="fill:#fff"></path><path d="M199.09,276.66c0,.18.86.28,1.76.75s1.51,1.07,1.66,1-.3-1-1.38-1.52S199.06,276.5,199.09,276.66Z" style="fill:#fff"></path><path d="M268.15,201.39c-.64-.26-46.59-3.5-51.37,2.68-7.39,9.57-19.92,73.37-19.92,73.37l21.57,6.64c.64-.65,4.16-12.19,8.4-24.93,3-9.08,7.72-24.88,7.72-24.88l3.06-8.52s36.13,3.55,42.49,4.28c9,1,16.8-4,19.86-7.46s4.84-10.2,4.84-10.2Z" style="fill:#263238"></path><path d="M261.81,201.57a13.36,13.36,0,0,1-2.32-.25c-1.43-.19-3.4-.43-5.59-.58s-4.18-.2-5.61-.2a13.22,13.22,0,0,1-2.34-.08,8.52,8.52,0,0,1,2.33-.29,46.3,46.3,0,0,1,11.27.79A8.37,8.37,0,0,1,261.81,201.57Z" style="fill:#455a64"></path><path d="M271,100.48s-12.6-5.79-14-6.18-4.93-1.45-4.88,3.56,8.49,15.54,30.32,14.44,33.26-9.43,33.46-15.65-3.52-5.72-5-5-11.1,9-25,10.57C276.83,103.31,271,100.48,271,100.48Z" style="fill:#C6FF00"></path><g style="opacity:0.30000000000000004"><path d="M271,100.48s-12.6-5.79-14-6.18-4.93-1.45-4.88,3.56,8.49,15.54,30.32,14.44,33.26-9.43,33.46-15.65-3.52-5.72-5-5-11.1,9-25,10.57C276.83,103.31,271,100.48,271,100.48Z"></path></g><path d="M297.73,115.64a59,59,0,0,0,2.5-9.85,20.54,20.54,0,0,0-.88-10c-.18-.48-1.73-3.7-2.24-3.65s.59,3,.41,3.37a17.43,17.43,0,0,0-1.89,10.18,46.53,46.53,0,0,0,2.1,10" style="fill:#263238"></path><path d="M298,102.7c.21-8.5-4.55-15.72-13.06-15.7l-.79,0a15.21,15.21,0,0,0-14.29,14.87c-.14,7.38-.21,15.52.08,19.46.59,8.14,8.82,8.91,8.82,8.91s-.2,13.4-.2,13.4l19.9-12.52Z" style="fill:#ffbf9d"></path><path d="M278.74,130.29a19.73,19.73,0,0,0,10.42-3.78A10.29,10.29,0,0,1,278.78,133Z" style="fill:#ff9a6c"></path><path d="M272.67,110.19a1.17,1.17,0,0,0,1.2,1.11,1.12,1.12,0,0,0,1.13-1.13,1.16,1.16,0,0,0-1.19-1.1A1.12,1.12,0,0,0,272.67,110.19Z" style="fill:#263238"></path><path d="M271.79,106.59c.15.14,1-.57,2.25-.64s2.21.5,2.33.34-.1-.34-.52-.61a3.25,3.25,0,0,0-1.88-.45,3,3,0,0,0-1.77.69C271.83,106.24,271.71,106.52,271.79,106.59Z" style="fill:#263238"></path><path d="M283.42,109.69a1.17,1.17,0,0,0,1.19,1.11,1.12,1.12,0,0,0,1.14-1.12,1.17,1.17,0,0,0-1.19-1.11A1.12,1.12,0,0,0,283.42,109.69Z" style="fill:#263238"></path><path d="M284.09,105.89c.15.15,1-.56,2.25-.63s2.2.5,2.33.33-.1-.33-.52-.6a3.17,3.17,0,0,0-1.88-.46,3,3,0,0,0-1.78.7C284.13,105.55,284,105.83,284.09,105.89Z" style="fill:#263238"></path><path d="M280.18,114.86a8.57,8.57,0,0,0-2.06-.25c-.32,0-.63-.06-.69-.27a1.63,1.63,0,0,1,.15-1c.26-.79.52-1.62.8-2.49a43.19,43.19,0,0,0,1.74-6.5,40.92,40.92,0,0,0-2.26,6.34c-.26.88-.52,1.71-.76,2.51a1.85,1.85,0,0,0-.08,1.26.83.83,0,0,0,.55.44,2.19,2.19,0,0,0,.55,0A8.41,8.41,0,0,0,280.18,114.86Z" style="fill:#263238"></path><path d="M283.43,99.06c.14.34,1.38.1,2.86.19s2.7.41,2.87.1c.08-.16-.14-.46-.64-.76a4.85,4.85,0,0,0-2.16-.62,4.8,4.8,0,0,0-2.21.4C283.62,98.62,283.37,98.9,283.43,99.06Z" style="fill:#263238"></path><path d="M271.39,102.93c.22.32,1.31.17,2.57.33s2.29.5,2.57.24,0-.44-.43-.77a4.21,4.21,0,0,0-2-.74,4,4,0,0,0-2.12.29C271.47,102.51,271.29,102.78,271.39,102.93Z" style="fill:#263238"></path><path d="M297.68,108.77c.13-.06,5.5-2,5.66,3.59s-5.48,4.59-5.49,4.43S297.68,108.77,297.68,108.77Z" style="fill:#ffbf9d"></path><path d="M299.49,114.63s.1.06.27.13a.93.93,0,0,0,.72,0,2.39,2.39,0,0,0,1-2.19,3.26,3.26,0,0,0-.31-1.39,1.1,1.1,0,0,0-.75-.72.5.5,0,0,0-.57.28c-.07.16,0,.27-.06.28s-.12-.09-.08-.32a.62.62,0,0,1,.21-.36.76.76,0,0,1,.53-.16,1.39,1.39,0,0,1,1,.84,3.26,3.26,0,0,1,.38,1.55,2.53,2.53,0,0,1-1.35,2.45,1.08,1.08,0,0,1-.89-.12C299.5,114.76,299.47,114.64,299.49,114.63Z" style="fill:#ff9a6c"></path><path d="M273.27,92.6c-.91-.48,1.74-3.46,3.94-4.51,3.33-1.59,8.43-2.63,11.55-1.81,3.74,1,6.87,2.77,8.81,6.13a22,22,0,0,1,2.69,11.16,6.72,6.72,0,0,1-.72,3.43c-.76,1.25-2.24,2-2.14,3.75a2.35,2.35,0,0,1-.54,1.72c-1,1.11-2.27.11-2.87-.9-1.27-2.16-1.46-4.77-1.61-7.27a16.08,16.08,0,0,1,.24-5.32c.26-.94.68-1.82.88-2.77a3.38,3.38,0,0,0-.45-2.78,3.3,3.3,0,0,0-.46-.45,5.82,5.82,0,0,0-5.8-1c-3.12,1.18-8.46,3-9.88,1.91a8.61,8.61,0,0,1-2.55-2.49Z" style="fill:#263238"></path><path d="M288.45,85.53a12.27,12.27,0,0,0-9.42.7,6.4,6.4,0,0,0-3.3,3.78,3.65,3.65,0,0,0,1.92,4.29l.11.07c2.4.76,3.94.41,6.3-.46,2-.73,3.74-2,5.73-2.73a11.36,11.36,0,0,1,6.63-.32A18.4,18.4,0,0,0,288.45,85.53Z" style="fill:#263238"></path><path d="M269.84,99s1.37-5.39,2.2-8.15c1.43-4.72,4.79-8.55,6.79-8.53s2.59,1.16,4.93,1.33,4.18-1.15,5.93-1.11,3.69.68,6.11,5.86c3,6.46,5.06,10.1,4.9,9.84,0,0-10.32,3.44-16.41,3.74S269.84,99,269.84,99Z" style="fill:#C6FF00"></path><path d="M279,83.23a2.2,2.2,0,0,1,.17,1,5.63,5.63,0,0,1-.61,2.45,5.5,5.5,0,0,1-1.64,1.91,2.23,2.23,0,0,1-.93.46s.32-.24.79-.65a6.28,6.28,0,0,0,2.15-4.18A5.13,5.13,0,0,1,279,83.23Z" style="fill:#263238"></path><path d="M292.72,89.94a2.84,2.84,0,0,1-1.09-.44,8.17,8.17,0,0,1-2.16-1.82,8,8,0,0,1-1.42-2.44,2.85,2.85,0,0,1-.25-1.15,14.08,14.08,0,0,0,1.92,3.38A13.59,13.59,0,0,0,292.72,89.94Z" style="fill:#263238"></path><g style="opacity:0.30000000000000004"><path d="M269.84,101.92s6.85,4.38,14.05,3.57,16.58-4.86,16.58-4.86l-.33-2.43-30.07,1.4Z"></path></g><path d="M271,95.09s16.86,2,27.49-1.2l1.58,3-11.94,3.73-11.69.26-6.26-2.86Z" style="fill:#455a64"></path><path d="M254.48,93.83a42.43,42.43,0,0,1,9.35,3.88c5.24,2.89,11.3,6.52,22.88,5.35s20.44-8.33,22.14-9.58a29.6,29.6,0,0,0,2.46-2A71,71,0,0,1,283.67,99C268.44,99.66,257.66,92.87,254.48,93.83Z" style="fill:#C6FF00"></path><path d="M308.41,92.92a3.61,3.61,0,0,1-.52.23l-1.49.61c-1.31.51-3.2,1.26-5.57,2.08a55,55,0,0,1-19.26,3.35,49,49,0,0,1-10.75-1.09c-1.63-.35-3.15-.8-4.56-1.25l-3.9-1.26A50.36,50.36,0,0,0,256.64,94a13.38,13.38,0,0,0-1.59-.18,2.83,2.83,0,0,1-.57,0,4.92,4.92,0,0,1,.57,0,11.29,11.29,0,0,1,1.61.12,43.19,43.19,0,0,1,5.77,1.46l3.92,1.22c1.41.43,2.91.87,4.53,1.21a50.38,50.38,0,0,0,10.69,1.06,61.29,61.29,0,0,0,10.7-1,62.27,62.27,0,0,0,8.48-2.27c2.38-.8,4.28-1.5,5.6-2l1.52-.55A3.75,3.75,0,0,1,308.41,92.92Z" style="fill:#263238"></path><path d="M279.61,119.78c-.05-.18,1.08-.6,2.22-1.47s1.85-1.83,2-1.73-.35,1.3-1.62,2.26S279.64,120,279.61,119.78Z" style="fill:#263238"></path><path d="M303,125.56a2.13,2.13,0,0,0-3.82.85l-.08,1.38a1.54,1.54,0,0,0,1,1.16,2.29,2.29,0,0,0,1.55,0,2.56,2.56,0,0,0,1.45-1.05A2.17,2.17,0,0,0,303,125.56Z" style="fill:#C6FF00"></path><path d="M309.1,116.4c-1.18,1.24-3,1.66-4.58,2.18s-3.37,1.32-4,2.89c-.59,1.38-.19,3,.21,4.38a5.29,5.29,0,0,0,6.87-1.53A9.17,9.17,0,0,0,309.1,116.4Z" style="fill:#C6FF00"></path><path d="M314,130.94c-1.62-.55-2.75-2-3.9-3.25s-2.61-2.5-4.32-2.45c-1.49,0-2.75,1.05-3.89,2a5.32,5.32,0,0,0,4.27,5.61A9.21,9.21,0,0,0,314,130.94Z" style="fill:#C6FF00"></path><path d="M300.55,129.2a4.57,4.57,0,0,0,1.42-.3,2.32,2.32,0,0,0,1.27-2.82,2.17,2.17,0,0,0-1.23-1.3,2,2,0,0,0-1.48,0,2.92,2.92,0,0,0-1.13.87s0-.16.17-.38a2.11,2.11,0,0,1,.87-.71,2.21,2.21,0,0,1,1.69-.05,2.48,2.48,0,0,1,1.43,1.49,2.57,2.57,0,0,1-.22,2,2.48,2.48,0,0,1-1.28,1.09A2,2,0,0,1,300.55,129.2Z" style="fill:#263238"></path><path d="M307.07,124.92a4.26,4.26,0,0,1-1.77.92,4.42,4.42,0,0,1-2,.31,10.48,10.48,0,0,1,1.86-.63A11.77,11.77,0,0,1,307.07,124.92Z" style="fill:#263238"></path><path d="M304.65,120.74a20.75,20.75,0,0,0-1.43,1.77c-.67,1.06-.86,2.09-1,2.07a3.67,3.67,0,0,1,.68-2.25A3.59,3.59,0,0,1,304.65,120.74Z" style="fill:#263238"></path><path d="M305.52,130a2,2,0,0,1-1.48-.5c-.73-.52-1-1.21-1-1.24s.48.5,1.15,1S305.54,129.93,305.52,130Z" style="fill:#263238"></path><path d="M306.94,128.34a4,4,0,0,1-1.84-.06,3.81,3.81,0,0,1-1.75-.58,7.16,7.16,0,0,1,1.81.26A7.36,7.36,0,0,1,306.94,128.34Z" style="fill:#263238"></path><path d="M300.39,126.61l-1.63-1.5-21,4.89-.38,1.64s-2.35-.09-2.74.74a13.21,13.21,0,0,1-.93,1.6l4.81,10.71a9.11,9.11,0,0,0,.93,8.27,21.34,21.34,0,0,0,6.3,6.07,2.81,2.81,0,0,0,1.91.71c1-.13,1.53-1.16,1.9-2.08a70.45,70.45,0,0,0,4.05-11.56l6.26-13.58Z" style="fill:#C6FF00"></path><path d="M282.41,146a5.38,5.38,0,0,1-.83-1.16,12.86,12.86,0,0,1-1.47-3.12,6.63,6.63,0,0,1-.1-3.46,2.68,2.68,0,0,1,.63-1.28c.05,0-.23.5-.4,1.34a7.16,7.16,0,0,0,.2,3.31,16.22,16.22,0,0,0,1.34,3.09A7,7,0,0,1,282.41,146Z" style="fill:#fff"></path><path d="M299.78,132.7a7.41,7.41,0,0,1,.15-1.17,17.56,17.56,0,0,0,.06-2.81,6.12,6.12,0,0,0-.54-2.69,7.72,7.72,0,0,0-.69-.92s.47.15.89.8a5.46,5.46,0,0,1,.67,2.8,11.75,11.75,0,0,1-.16,2.86A3,3,0,0,1,299.78,132.7Z" style="fill:#263238"></path><path d="M281,131.28c0,.05-.32.21-.66.68a3.36,3.36,0,0,0-.59,2.1,7,7,0,0,0,.54,2.2c.22.56.36.9.31.92s-.25-.28-.53-.82a5.89,5.89,0,0,1-.66-2.28,3.27,3.27,0,0,1,.75-2.27C280.59,131.34,281,131.24,281,131.28Z" style="fill:#fff"></path><path d="M281.54,131.15c-.09,0-.3-.37-.37-.91s0-1,.13-1,.14.43.2.94S281.63,131.13,281.54,131.15Z" style="fill:#fff"></path><path d="M289.21,129.61c-.08,0-.31-.38-.51-.91s-.28-1-.2-1,.32.38.51.91S289.3,129.58,289.21,129.61Z" style="fill:#fff"></path><path d="M288.83,136.18s-.35-.21-.71-.73a5,5,0,0,1-.84-2.31,5.12,5.12,0,0,1,.37-2.43,2,2,0,0,1,.54-.85,7,7,0,0,1-.32.94,5.55,5.55,0,0,0-.25,2.31,5.81,5.81,0,0,0,.7,2.21A9.25,9.25,0,0,1,288.83,136.18Z" style="fill:#fff"></path><path d="M289.63,142.65a5.38,5.38,0,0,1-1.46-2.5,5.25,5.25,0,0,1-.24-2.88c.1,0,.08,1.29.56,2.78S289.72,142.59,289.63,142.65Z" style="fill:#fff"></path><path d="M288,159.11a2.18,2.18,0,0,1-.33-.44c-.19-.3-.45-.74-.74-1.29a21.89,21.89,0,0,1-2.39-9.47c0-.63,0-1.13,0-1.48a2,2,0,0,1,.08-.55c.05,0,0,.78.12,2a25.64,25.64,0,0,0,2.37,9.37A19.29,19.29,0,0,1,288,159.11Z" style="fill:#fff"></path><path d="M293.47,145.7a16.07,16.07,0,0,1-1-1.79,14.91,14.91,0,0,1-1-1.76,4.09,4.09,0,0,1,1.29,1.6A4,4,0,0,1,293.47,145.7Z" style="fill:#fff"></path><path d="M297.59,137.67c-.08,0-.29-.27-.56-.62s-.49-.65-.43-.73.41.13.7.53S297.68,137.64,297.59,137.67Z" style="fill:#fff"></path><path d="M277.79,147.42a1.83,1.83,0,0,1,.4-1.51c.51-.75,1.22-1,1.25-.93s-.52.45-1,1.12S277.89,147.43,277.79,147.42Z" style="fill:#fff"></path><path d="M276,132.13a12.59,12.59,0,0,0-.76,1.39,14,14,0,0,0-.27,1.56,1.87,1.87,0,0,1,0-1.67C275.27,132.49,276,132.05,276,132.13Z" style="fill:#fff"></path><path d="M295.32,133.69c-.1,0-.32-1.25-.94-2.69s-1.35-2.48-1.27-2.54a6.09,6.09,0,0,1,1.58,2.41A6.32,6.32,0,0,1,295.32,133.69Z" style="fill:#fff"></path><path d="M295.62,137.62c-.09,0-.28-.73-.72-1.55a15.44,15.44,0,0,1-.86-1.47,2.76,2.76,0,0,1,1.15,1.32A2.64,2.64,0,0,1,295.62,137.62Z" style="fill:#fff"></path><path d="M299.73,133.1a3.37,3.37,0,0,1-.22-.93,9.44,9.44,0,0,0-.61-2.17,4.11,4.11,0,0,0-1.38-1.69c-.47-.31-.83-.39-.82-.44s.4-.05.94.24a3.66,3.66,0,0,1,1.56,1.76,6.93,6.93,0,0,1,.54,2.27A2.33,2.33,0,0,1,299.73,133.1Z" style="fill:#fff"></path><path d="M295.05,126.47c.09,0,.18.33.28.75s.16.75.08.79-.31-.27-.41-.72S295,126.47,295.05,126.47Z" style="fill:#fff"></path><path d="M296.53,132.54s0,.07-.16.19-.29.29-.52.49a17,17,0,0,1-2.12,1.56A18.45,18.45,0,0,1,277,136.31a17.3,17.3,0,0,1-2.36-1.16c-.27-.15-.47-.29-.61-.38s-.2-.15-.19-.16a6.6,6.6,0,0,1,.86.43,21.66,21.66,0,0,0,2.38,1.05,19,19,0,0,0,16.53-1.51,20.18,20.18,0,0,0,2.15-1.46A7.72,7.72,0,0,1,296.53,132.54Z" style="fill:#263238"></path><path d="M298.25,133.06a5.33,5.33,0,0,1-.4.9c-.28.57-.71,1.38-1.27,2.37a24.11,24.11,0,0,1-5.62,6.86,15.67,15.67,0,0,1-4.35,2.27,11,11,0,0,1-4,.63,6.2,6.2,0,0,1-2.63-.63,3.36,3.36,0,0,1-.63-.39c-.13-.09-.2-.15-.19-.16s.31.18.88.43a6.41,6.41,0,0,0,2.57.52,11.6,11.6,0,0,0,3.86-.69,15.3,15.3,0,0,0,4.24-2.25,25.2,25.2,0,0,0,5.62-6.71c.59-1,1.05-1.76,1.36-2.31A6.31,6.31,0,0,1,298.25,133.06Z" style="fill:#263238"></path><g style="opacity:0.30000000000000004"><path d="M298.25,133.06c-1.82,3.5-3.87,7-6.86,9.56s-8.84,4.74-12.19,2.29c0,0,3,3.94,7.16,2.51s7.72-4.44,10.17-9.8A24.62,24.62,0,0,0,298.25,133.06Z"></path></g><path d="M298.76,127.32a4.19,4.19,0,0,1-.83.27c-.54.16-1.33.37-2.31.62-2,.51-4.67,1.16-7.69,1.8s-5.76,1.14-7.75,1.47c-1,.17-1.8.3-2.36.37a4.67,4.67,0,0,1-.88.09,4.84,4.84,0,0,1,.86-.22l2.34-.47c2-.39,4.71-.93,7.73-1.57s5.73-1.25,7.69-1.69l2.34-.52A3.65,3.65,0,0,1,298.76,127.32Z" style="fill:#263238"></path><path d="M313.64,136.31l-11.09-3.61A50,50,0,0,0,295.66,154c-.86,12-4,46.58-4,46.58l24.29,5,.81-19.63Z" style="fill:#C6FF00"></path><path d="M196,245.13s-19.57,28.92-16.63,46.58c0,0,9.87,1.73,10.57,1.73s1.9-26.15,12.12-44.16Z" style="fill:#455a64"></path><path d="M196,245.13l.39.23,1.16.77,4.58,3.05.09.06,0,.11a81.54,81.54,0,0,0-7.3,19c-1.1,4.15-2.06,8.71-2.86,13.58-.41,2.44-.77,5-1.11,7.52-.2,1.3-.3,2.57-.62,3.94a.68.68,0,0,1-.07.17.35.35,0,0,1-.19.15c-.09,0-.1,0-.1,0h0l-.27,0-.5-.07-1-.15-2-.32-6.8-1.17-.18,0,0-.18a27.77,27.77,0,0,1-.27-5.29,39.52,39.52,0,0,1,.62-5.06,59.9,59.9,0,0,1,2.53-9.22,109.87,109.87,0,0,1,6.51-14.61c2.11-4,4-7.11,5.33-9.23.66-1.06,1.2-1.86,1.57-2.41.17-.24.31-.45.43-.61a.73.73,0,0,1,.16-.19,1,1,0,0,1-.12.22l-.39.64L194,248.44c-1.29,2.15-3.12,5.28-5.19,9.29a115.19,115.19,0,0,0-6.38,14.6,60.07,60.07,0,0,0-2.47,9.16,38.6,38.6,0,0,0-.6,5,27.45,27.45,0,0,0,.27,5.18l-.21-.22,6.79,1.17,2,.32,1,.15.49.06.22,0h0c0,.47,0,.11,0,.2s0,0-.06-.05l-.1-.08s0,0,0-.05c.28-1.22.41-2.58.6-3.85.34-2.57.71-5.09,1.12-7.53.82-4.88,1.81-9.46,2.93-13.61a79.07,79.07,0,0,1,7.51-19l0,.17-4.44-3.13-1.15-.83A3.54,3.54,0,0,1,196,245.13Z" style="fill:#263238"></path><polygon points="196.04 245.13 205.73 219.37 208.17 222.01 198.55 246.85 196.04 245.13" style="fill:#263238"></polygon><polygon points="199.73 247.66 210.57 225.07 213.28 227.71 202.1 249.28 199.73 247.66" style="fill:#263238"></polygon><path d="M265.77,191.74s32.09,16.8,43,16.68c0,0-1.37,5.94-4.82,8.07,0,0-24.47-8.43-42.11-18.52Z" style="fill:#455a64"></path><path d="M286.4,210.83a4.63,4.63,0,1,1,6.42-1.29A4.64,4.64,0,0,1,286.4,210.83Zm4.59-6.9a3.66,3.66,0,1,0,1,5.07A3.67,3.67,0,0,0,291,203.93Z" style="fill:#ebebeb"></path><path d="M288.2,207.24a.49.49,0,0,1,.41-.88c.75.23,1.5.53,2.23.83s1.44.58,2.14.79a.49.49,0,0,1,.33.61.5.5,0,0,1-.62.33c-.74-.23-1.49-.53-2.22-.83s-1.44-.58-2.14-.79Z" style="fill:#ebebeb"></path><path d="M284.41,202.85a.7.7,0,0,1-1.16-.77.68.68,0,0,1,1-.19A.69.69,0,0,1,284.41,202.85Z" style="fill:#263238"></path><path d="M280.62,201.08a.7.7,0,1,1-.2-1A.71.71,0,0,1,280.62,201.08Z" style="fill:#263238"></path><path d="M276.08,198.91a.71.71,0,0,1-1,.19.7.7,0,0,1,.77-1.16A.71.71,0,0,1,276.08,198.91Z" style="fill:#263238"></path><path d="M271.64,196.57a.69.69,0,1,1-.19-1A.69.69,0,0,1,271.64,196.57Z" style="fill:#263238"></path><path d="M282.47,206.92a.69.69,0,1,1-.19-1A.68.68,0,0,1,282.47,206.92Z" style="fill:#263238"></path><path d="M278.68,205.15a.69.69,0,1,1-.19-1A.68.68,0,0,1,278.68,205.15Z" style="fill:#263238"></path><path d="M274.14,203a.7.7,0,0,1-1.16-.77.7.7,0,1,1,1.16.77Z" style="fill:#263238"></path><path d="M269.71,200.64a.68.68,0,0,1-1,.19.69.69,0,1,1,1-.19Z" style="fill:#263238"></path><path d="M297.38,214.36a1.88,1.88,0,0,1,.47-.25l1.31-.57c1.11-.47,2.65-1.11,4.36-1.8l.15-.06-.05.2c-1.17-1.38-2.21-2.64-2.95-3.55l-.87-1.09a2.19,2.19,0,0,1-.29-.42s.15.12.37.36.54.59.93,1c.77.88,1.83,2.11,3,3.49l.11.14-.16.06-.15.06c-1.7.69-3.25,1.31-4.38,1.74l-1.34.5A2.67,2.67,0,0,1,297.38,214.36Z" style="fill:#263238"></path><path d="M295.71,205.53l.46.13,1.33.42.07,0,0,.07c-.5,1.64-1.35,4.32-2.33,7.33h0l0,.12-.12,0-1.74-.61-.12,0,0-.11c.69-2.12,1.31-4,1.76-5.27l.52-1.52c.13-.35.2-.53.2-.52a4.7,4.7,0,0,1-.15.6c-.13.41-.28.93-.47,1.57-.4,1.32-1,3.14-1.62,5.21l-.08-.15,1.74.6-.16.08h0c1-3,1.87-5.68,2.43-7.3l.05.09-1.26-.48A3,3,0,0,1,295.71,205.53Z" style="fill:#263238"></path><path d="M288.26,207.33a8.73,8.73,0,0,1,1.5.47l1.6.59.95.35.24.09a.56.56,0,0,0,.21,0,.39.39,0,0,0,.31-.23.37.37,0,0,0-.06-.39.4.4,0,0,0-.16-.12l-.25-.1-.93-.38L290.1,207a11,11,0,0,1-1.43-.66,8.36,8.36,0,0,1,1.5.5l1.59.61.94.36.24.1a.61.61,0,0,1,.27.19.62.62,0,0,1,.1.64.64.64,0,0,1-.53.39.83.83,0,0,1-.32-.05l-.24-.1-.94-.36L289.7,208A11.08,11.08,0,0,1,288.26,207.33Z" style="fill:#263238"></path><path d="M332.05,233.92l1.85.09,3.28-5.14L335.87,236l-1.71,4.13-5-.88s-.05-2.66,2-2.55a15.89,15.89,0,0,1-2.37-1l0,0a3.49,3.49,0,0,1,2.82-1.74Z" style="fill:#ff9a6c"></path><path d="M339.78,282.06c-7.47,0-13.32-12.23-13.32-27.83s5.85-27.83,13.32-27.83,13.33,12.22,13.33,27.83S347.26,282.06,339.78,282.06Zm0-52.66c-5,0-10.32,10-10.32,24.83s5.34,24.83,10.32,24.83,10.33-10,10.33-24.83S344.77,229.4,339.78,229.4Z" style="fill:#ae7461"></path><path d="M328.27,280.09a7,7,0,0,1-1.59-.18c-3.69-.85-6.36-4.61-7.53-10.57-1.09-5.56-.79-12.5.85-19.55,3.53-15.2,12-25.78,19.28-24.09s10.2,14.92,6.67,30.12h0c-1.63,7.05-4.42,13.42-7.85,17.92C334.94,277.89,331.51,280.09,328.27,280.09Zm9.44-51.57c-4.84,0-11.63,8.34-14.79,21.95-1.54,6.65-1.84,13.14-.83,18.29.92,4.67,2.84,7.67,5.27,8.23s5.47-1.28,8.35-5.07c3.18-4.17,5.78-10.13,7.32-16.78h0c3.36-14.46.42-25.39-4.43-26.52A4.41,4.41,0,0,0,337.71,228.52Z" style="fill:#ae7461"></path><path d="M333.38,281.88a6.65,6.65,0,0,1-.89-.06c-7.41-.95-11.65-13.83-9.65-29.3s9.35-26.85,16.78-25.89,11.65,13.83,9.65,29.3h0c-.93,7.18-3.07,13.79-6,18.62S336.84,281.88,333.38,281.88Zm5.37-52.31c-4.88,0-11.09,9.09-12.93,23.33-1.91,14.73,2.11,25.31,7.05,26,2.48.31,5.32-1.82,7.81-5.87,2.74-4.47,4.74-10.66,5.61-17.43,1.9-14.73-2.11-25.31-7.05-26Z" style="fill:#ae7461"></path><path d="M330.58,175.88s-8.74-29.89-11.17-34.8c-2.64-5.33-12.47-7-12.47-7h0a9.75,9.75,0,0,0-1.67,3.11,29.33,29.33,0,0,0,4.15,26.17h0l6.45,20.22,8.82,21.9,10.59-2.13s1.36.44,2.05-2.82S330.58,175.88,330.58,175.88Z" style="fill:#e0e0e0"></path><path d="M338.79,215.69S341,227.35,341.06,230s-4.65,13.8-4.65,13.8a3.32,3.32,0,0,1-2.25-3.7c.52-2.78,1.81-9.74,1.81-9.74l-1.09-4.89s-2.37,3-4.3,3.91-4.13.18-3.13-1.17,2-2.09,2.25-3.48.73-7,2.13-8.63c0,0-3.64-8.23-3.18-8.37l8.53-1.42Z" style="fill:#ffbf9d"></path><rect x="321.89" y="202.01" width="19.54" height="7.04" rx="3.2" transform="translate(-42.22 93.93) rotate(-15.17)" style="fill:#e0e0e0"></rect><path d="M339.27,199.88a3.47,3.47,0,0,1-.67.2l-1.84.45c-1.55.37-3.69.89-6,1.53s-4.46,1.26-6,1.73l-1.81.54a2.12,2.12,0,0,1-.68.16,3.48,3.48,0,0,1,.64-.29c.41-.16,1-.38,1.78-.65,1.51-.52,3.61-1.19,6-1.83s4.51-1.13,6.08-1.44c.78-.15,1.42-.26,1.86-.33A2.78,2.78,0,0,1,339.27,199.88Z" style="fill:#263238"></path><path d="M329.26,178.3a10.45,10.45,0,0,1-1.69.37,33.05,33.05,0,0,0-4,1.08,34.63,34.63,0,0,0-3.83,1.6,13,13,0,0,1-1.56.75,6.36,6.36,0,0,1,1.45-1,23.71,23.71,0,0,1,3.82-1.71,23,23,0,0,1,4.08-1A6.59,6.59,0,0,1,329.26,178.3Z" style="fill:#263238"></path><path d="M308.11,159.15a16.54,16.54,0,0,1,1.15,2.92c.64,1.84,1.46,4.38,2.33,7.21s1.58,5.24,2.18,7.25a19.85,19.85,0,0,1,.8,3,18.18,18.18,0,0,1-1.15-2.92c-.63-1.83-1.46-4.38-2.33-7.21s-1.57-5.24-2.18-7.24A21.34,21.34,0,0,1,308.11,159.15Z" style="fill:#263238"></path><path d="M310.18,138.46a17.37,17.37,0,0,0-3.2,4.9,17,17,0,0,0-.89,5.78,4,4,0,0,1-.32-1.74,10.91,10.91,0,0,1,3-7.85A4.11,4.11,0,0,1,310.18,138.46Z" style="fill:#263238"></path><path d="M335.29,227.69c.07.06-.89,1.12-2.1,3.07a41.43,41.43,0,0,0-3.79,8.08,69.4,69.4,0,0,0-2.41,8.63c-.48,2.25-.7,3.66-.78,3.65a4.1,4.1,0,0,1,0-1c.06-.64.18-1.57.38-2.71a52.9,52.9,0,0,1,2.28-8.73,36.11,36.11,0,0,1,4-8.12c.32-.48.63-.9.92-1.26a10.06,10.06,0,0,1,.76-.9A3.44,3.44,0,0,1,335.29,227.69Z" style="fill:#263238"></path><path d="M335.29,226.62c.06.1-1.26.81-3,2.48a15.73,15.73,0,0,0-1.3,1.44c-.46.53-.88,1.15-1.33,1.79a31.4,31.4,0,0,0-2.45,4.49,59.78,59.78,0,0,0-3,8.84,35.26,35.26,0,0,1-1,3.75,4,4,0,0,1,.11-1c.12-.66.29-1.62.55-2.8a48.88,48.88,0,0,1,2.86-9,28.71,28.71,0,0,1,2.52-4.55,21.25,21.25,0,0,1,1.4-1.8,13.39,13.39,0,0,1,1.38-1.42,10.93,10.93,0,0,1,1.26-1.05,6.42,6.42,0,0,1,1-.68A3.8,3.8,0,0,1,335.29,226.62Z" style="fill:#263238"></path><path d="M340.18,229.33a2,2,0,0,1,1,.12,5.46,5.46,0,0,1,2.35,1.48,10.5,10.5,0,0,1,2.08,3.53,26.43,26.43,0,0,1,1.37,4.81,27.35,27.35,0,0,1,.2,9,23.31,23.31,0,0,1-.56,2.69,4.25,4.25,0,0,1-.34.95c-.09,0,.29-1.41.53-3.69a30,30,0,0,0-.34-8.89,28.18,28.18,0,0,0-1.31-4.73,10.83,10.83,0,0,0-1.9-3.46,5.82,5.82,0,0,0-2.14-1.54C340.54,229.41,340.18,229.37,340.18,229.33Z" style="fill:#263238"></path><path d="M340.3,227.69c0-.09,1.86,0,4.09,1.76a8.63,8.63,0,0,1,1.64,1.62,13.24,13.24,0,0,1,1.34,2.25,30.9,30.9,0,0,1,1.9,5.67,29.66,29.66,0,0,1,.63,5.93c0,1.83,0,3.47-.06,4.85s-.12,2.5-.18,3.26a6.34,6.34,0,0,1-.14,1.2,4.75,4.75,0,0,1-.06-1.2c0-.88,0-2,0-3.27s0-3-.05-4.82a31.67,31.67,0,0,0-.66-5.84,32.49,32.49,0,0,0-1.82-5.57,14.52,14.52,0,0,0-1.26-2.21,8.5,8.5,0,0,0-1.52-1.58,10.33,10.33,0,0,0-2.73-1.67C340.72,227.78,340.3,227.73,340.3,227.69Z" style="fill:#263238"></path><path d="M344.63,276.45a3.08,3.08,0,0,1-1.37,1.61,5.88,5.88,0,0,1-5,.7,7.1,7.1,0,0,1-3.88-3.3,4.37,4.37,0,0,1-.7-2c.09,0,.32.75,1,1.81a7.39,7.39,0,0,0,3.73,3,5.83,5.83,0,0,0,4.67-.51A10.47,10.47,0,0,0,344.63,276.45Z" style="fill:#263238"></path><path d="M340.41,281.76a3.17,3.17,0,0,1-1.93.33,7.55,7.55,0,0,1-4.37-1.8,12.48,12.48,0,0,1-2.91-3.72,5.84,5.84,0,0,1-.75-1.8,10.63,10.63,0,0,1,1.07,1.61,15.09,15.09,0,0,0,2.92,3.51,8.05,8.05,0,0,0,4.07,1.84C339.67,281.87,340.4,281.67,340.41,281.76Z" style="fill:#263238"></path><path d="M333.91,279.56c0,.07-.37.18-1,.09a4.34,4.34,0,0,1-2.14-1,8,8,0,0,1-1.52-1.77c-.32-.5-.47-.83-.41-.87s1,1.11,2.26,2.24A5.78,5.78,0,0,0,333,279.3C333.54,279.46,333.9,279.48,333.91,279.56Z" style="fill:#263238"></path><path d="M330.77,281.58c0,.06-.55-.06-1.32-.47a8.76,8.76,0,0,1-4.19-5.18,2.9,2.9,0,0,1-.18-1.39,17.66,17.66,0,0,0,2.17,4.07A17.27,17.27,0,0,0,330.77,281.58Z" style="fill:#263238"></path></g></svg>
